<svg xmlns="http://www.w3.org/2000/svg">
    <!--!Font Awesome Free v7.1.0 by @fontawesome - https://fontawesome.com License - https://fontawesome.com/license/free Copyright 2025 Fonticons, Inc.-->
    <symbol id="download" viewBox="0 0 640 640">
        <path d="M352 96C352 78.3 337.7 64 320 64C302.3 64 288 78.3 288 96L288 306.7L246.6 265.3C234.1 252.8 213.8 252.8 201.3 265.3C188.8 277.8 188.8 298.1 201.3 310.6L297.3 406.6C309.8 419.1 330.1 419.1 342.6 406.6L438.6 310.6C451.1 298.1 451.1 277.8 438.6 265.3C426.1 252.8 405.8 252.8 393.3 265.3L352 306.7L352 96zM160 384C124.7 384 96 412.7 96 448L96 480C96 515.3 124.7 544 160 544L480 544C515.3 544 544 515.3 544 480L544 448C544 412.7 515.3 384 480 384L433.1 384L376.5 440.6C345.3 471.8 294.6 471.8 263.4 440.6L206.9 384L160 384zM464 440C477.3 440 488 450.7 488 464C488 477.3 477.3 488 464 488C450.7 488 440 477.3 440 464C440 450.7 450.7 440 464 440z"/>
    </symbol>
    <symbol id="envelope" viewBox="0 0 640 640">
        <path d="M112 128C85.5 128 64 149.5 64 176C64 191.1 71.1 205.3 83.2 214.4L291.2 370.4C308.3 383.2 331.7 383.2 348.8 370.4L556.8 214.4C568.9 205.3 576 191.1 576 176C576 149.5 554.5 128 528 128L112 128zM64 260L64 448C64 483.3 92.7 512 128 512L512 512C547.3 512 576 483.3 576 448L576 260L377.6 408.8C343.5 434.4 296.5 434.4 262.4 408.8L64 260z"/>
    </symbol>
    <symbol id="github-square" viewBox="0 0 640 640">
        <path d="M590 127.143C590 84.5938 555.406 50 512.857 50H127.143C84.5938 50 50 84.5938 50 127.143V512.857C50 555.406 84.5938 590 127.143 590H512.857C555.406 590 590 555.406 590 512.857V127.143ZM370.384 502.853C370.384 500.683 370.384 495.621 370.504 488.871C370.625 475.13 370.625 454.156 370.625 436.196C370.625 417.393 364.357 405.46 357.005 399.192C401.603 394.25 448.612 388.103 448.612 311.08C448.612 289.143 440.777 278.174 428 264.071C430.049 258.888 436.92 237.554 425.951 209.83C409.196 204.647 370.866 231.406 370.866 231.406C338.804 222.366 302.643 222.366 270.58 231.406C270.58 231.406 232.25 204.647 215.496 209.83C204.527 237.433 211.277 258.768 213.446 264.071C200.67 278.174 194.643 289.143 194.643 311.08C194.643 387.741 239.603 394.25 284.201 399.192C278.415 404.375 273.232 413.295 271.424 426.071C259.973 431.254 230.683 440.174 213.205 409.317C202.237 390.272 182.469 388.705 182.469 388.705C162.942 388.464 181.143 401 181.143 401C194.161 407.027 203.321 430.17 203.321 430.17C215.013 465.969 270.942 453.915 270.942 453.915C270.942 464.763 271.063 480.071 271.063 490.799C271.063 496.585 271.183 501.165 271.183 502.853C271.183 508.036 267.567 514.304 257.321 512.496C177.768 485.857 122.08 410.161 122.08 321.688C122.08 211.036 206.696 127.022 317.348 127.022C428 127.022 517.679 211.036 517.679 321.688C517.799 410.161 463.799 485.978 384.246 512.496C374.121 514.304 370.384 508.036 370.384 502.853Z"/>
    </symbol>
    <symbol id="gitlab-square" viewBox="0 0 640 640">
        <path d="M50 127.143V512.857C50 555.406 84.5938 590 127.143 590H512.857C555.406 590 590 555.406 590 512.857V127.143C590 84.5938 555.406 50 512.857 50H127.143C84.5938 50 50 84.5938 50 127.143ZM456.808 142.21L510.567 282.513L511.049 283.96C517.799 304.21 519.728 326.388 513.821 347.241C507.795 367.973 495.259 386.295 477.902 399.433L477.661 399.554L395.214 461.268L330.004 510.567C329.402 510.808 328.679 511.17 327.955 511.531C325.545 512.737 322.652 513.942 319.879 513.942C316.263 513.942 311.683 511.772 309.875 510.567L244.545 461.268L162.701 399.915L162.219 399.554L161.978 399.433C144.741 386.415 132.085 368.094 126.179 347.241C120.272 326.388 121.116 304.21 128.83 283.96L129.433 282.513L183.313 142.21C184.397 139.438 186.326 137.027 188.737 135.46C190.665 134.254 192.835 133.531 195.004 133.29C196.571 132.446 197.536 132.808 199.103 133.411C199.826 133.652 200.549 134.013 201.513 134.254C202.719 134.737 203.442 135.339 204.406 136.062C205.129 136.545 205.853 137.268 206.938 137.871C208.384 139.558 209.589 141.487 210.192 143.656L245.388 254.79H393.527L429.929 143.656C430.531 141.487 431.616 139.558 433.063 137.871C434.509 136.183 436.438 134.978 438.487 134.134C440.536 133.411 442.826 133.049 444.996 133.29C447.165 133.531 449.335 134.254 451.263 135.46C453.674 137.027 455.723 139.438 456.808 142.21Z"/>
    </symbol>
    <symbol id="linkedin-square"  viewBox="0 0 640 640">
        <path d="M127.143 50C84.5938 50 50 84.5938 50 127.143V512.857C50 555.406 84.5938 590 127.143 590H512.857C555.406 590 590 555.406 590 512.857V127.143C590 84.5938 555.406 50 512.857 50H127.143ZM133.17 255.152H213.326V512.857H133.17V255.152ZM219.594 173.549C219.594 199.223 198.862 219.955 173.188 219.955C147.513 219.955 126.781 199.223 126.781 173.549C126.781 147.875 147.513 127.143 173.188 127.143C198.862 127.143 219.594 147.875 219.594 173.549ZM433.183 512.857V387.5C433.183 357.607 432.58 319.156 391.598 319.156C349.893 319.156 343.504 351.701 343.504 385.33V512.857H263.469V255.152H340.25V290.348H341.335C352.063 270.098 378.219 248.763 417.152 248.763C498.152 248.763 513.219 302.161 513.219 371.589V512.857H433.183Z"/>
    </symbol>
    <symbol id="devto-square" viewBox="0 0 640 640">
        <path d="M194.763 262.504C190.063 259.009 185.362 257.321 180.781 257.321H159.808V383.281H180.781C185.482 383.281 190.183 381.594 194.763 378.098C199.344 374.603 201.754 369.299 201.754 362.308V278.295C201.754 271.304 199.344 266 194.763 262.504ZM537.085 50H102.915C73.7455 50 50.1205 73.625 50 102.795V537.205C50.1205 566.375 73.7455 590 102.915 590H537.085C566.254 590 589.879 566.375 590 537.205V102.795C589.879 73.625 566.254 50 537.085 50ZM235.866 362.429C235.866 385.089 221.884 419.442 177.527 419.442H121.598V219.955H178.732C221.402 219.955 235.866 254.308 235.866 276.969V362.429ZM357.246 255.513H293V301.799H332.295V337.478H293V383.763H357.246V419.442H282.272C268.772 419.804 257.683 409.196 257.321 395.696V244.906C256.96 231.527 267.688 220.317 281.067 219.955H357.246V255.513ZM482.121 394.491C466.21 431.496 437.763 424.143 424.987 394.491L378.58 219.955H417.875L453.674 357.004L489.353 219.955H528.647L482.241 394.491H482.121Z"/>
    </symbol>
    <symbol id="globe" viewBox="0 0 640 640">
        <path d="M415.9 344L225 344C227.9 408.5 242.2 467.9 262.5 511.4C273.9 535.9 286.2 553.2 297.6 563.8C308.8 574.3 316.5 576 320.5 576C324.5 576 332.2 574.3 343.4 563.8C354.8 553.2 367.1 535.8 378.5 511.4C398.8 467.9 413.1 408.5 416 344zM224.9 296L415.8 296C413 231.5 398.7 172.1 378.4 128.6C367 104.2 354.7 86.8 343.3 76.2C332.1 65.7 324.4 64 320.4 64C316.4 64 308.7 65.7 297.5 76.2C286.1 86.8 273.8 104.2 262.4 128.6C242.1 172.1 227.8 231.5 224.9 296zM176.9 296C180.4 210.4 202.5 130.9 234.8 78.7C142.7 111.3 74.9 195.2 65.5 296L176.9 296zM65.5 344C74.9 444.8 142.7 528.7 234.8 561.3C202.5 509.1 180.4 429.6 176.9 344L65.5 344zM463.9 344C460.4 429.6 438.3 509.1 406 561.3C498.1 528.6 565.9 444.8 575.3 344L463.9 344zM575.3 296C565.9 195.2 498.1 111.3 406 78.7C438.3 130.9 460.4 210.4 463.9 296L575.3 296z"/>
    </symbol>
    <symbol id="moon" viewBox="0 0 640 640">
        <path d="M320 64C178.6 64 64 178.6 64 320C64 461.4 178.6 576 320 576C388.8 576 451.3 548.8 497.3 504.6C504.6 497.6 506.7 486.7 502.6 477.5C498.5 468.3 488.9 462.6 478.8 463.4C473.9 463.8 469 464 464 464C362.4 464 280 381.6 280 280C280 207.9 321.5 145.4 382.1 115.2C391.2 110.7 396.4 100.9 395.2 90.8C394 80.7 386.6 72.5 376.7 70.3C358.4 66.2 339.4 64 320 64z"/>
    </symbol>
    <symbol id="sun" viewBox="0 0 640 640">
        <path d="M210.2 53.9C217.6 50.8 226 51.7 232.7 56.1L320.5 114.3L408.3 56.1C415 51.7 423.4 50.9 430.8 53.9C438.2 56.9 443.4 63.5 445 71.3L465.9 174.5L569.1 195.4C576.9 197 583.5 202.4 586.5 209.7C589.5 217 588.7 225.5 584.3 232.2L526.1 320L584.3 407.8C588.7 414.5 589.5 422.9 586.5 430.3C583.5 437.7 576.9 443.1 569.1 444.6L465.8 465.4L445 568.7C443.4 576.5 438 583.1 430.7 586.1C423.4 589.1 414.9 588.3 408.2 583.9L320.4 525.7L232.6 583.9C225.9 588.3 217.5 589.1 210.1 586.1C202.7 583.1 197.3 576.5 195.8 568.7L175 465.4L71.7 444.5C63.9 442.9 57.3 437.5 54.3 430.2C51.3 422.9 52.1 414.4 56.5 407.7L114.7 320L56.5 232.2C52.1 225.5 51.3 217.1 54.3 209.7C57.3 202.3 63.9 196.9 71.7 195.4L175 174.6L195.9 71.3C197.5 63.5 202.9 56.9 210.2 53.9zM239.6 320C239.6 275.6 275.6 239.6 320 239.6C364.4 239.6 400.4 275.6 400.4 320C400.4 364.4 364.4 400.4 320 400.4C275.6 400.4 239.6 364.4 239.6 320zM448.4 320C448.4 249.1 390.9 191.6 320 191.6C249.1 191.6 191.6 249.1 191.6 320C191.6 390.9 249.1 448.4 320 448.4C390.9 448.4 448.4 390.9 448.4 320z"/>
    </symbol>
    <symbol id="circle-half-stroke" viewBox="0 0 640 640">
        <path d="M512 320C512 214 426 128 320 128L320 512C426 512 512 426 512 320zM64 320C64 178.6 178.6 64 320 64C461.4 64 576 178.6 576 320C576 461.4 461.4 576 320 576C178.6 576 64 461.4 64 320z"/>
    </symbol>
    <!-- Aside Icons -->
    <symbol id="house" viewBox="0 0 640 640">
        <path d="M341.8 72.6C329.5 61.2 310.5 61.2 298.3 72.6L74.3 280.6C64.7 289.6 61.5 303.5 66.3 315.7C71.1 327.9 82.8 336 96 336L112 336L112 512C112 547.3 140.7 576 176 576L464 576C499.3 576 528 547.3 528 512L528 336L544 336C557.2 336 569 327.9 573.8 315.7C578.6 303.5 575.4 289.5 565.8 280.6L341.8 72.6zM304 384L336 384C362.5 384 384 405.5 384 432L384 528L256 528L256 432C256 405.5 277.5 384 304 384z"/>
    </symbol>
    <symbol id="folder" viewBox="0 0 640 640">
        <path d="M128 512L512 512C547.3 512 576 483.3 576 448L576 208C576 172.7 547.3 144 512 144L362.7 144C355.8 144 349 141.8 343.5 137.6L305.1 108.8C294 100.5 280.5 96 266.7 96L128 96C92.7 96 64 124.7 64 160L64 448C64 483.3 92.7 512 128 512z"/>
    </symbol>
    <symbol id="user-group" viewBox="0 0 640 640">
        <path d="M96 192C96 130.1 146.1 80 208 80C269.9 80 320 130.1 320 192C320 253.9 269.9 304 208 304C146.1 304 96 253.9 96 192zM32 528C32 430.8 110.8 352 208 352C305.2 352 384 430.8 384 528L384 534C384 557.2 365.2 576 342 576L74 576C50.8 576 32 557.2 32 534L32 528zM464 128C517 128 560 171 560 224C560 277 517 320 464 320C411 320 368 277 368 224C368 171 411 128 464 128zM464 368C543.5 368 608 432.5 608 512L608 534.4C608 557.4 589.4 576 566.4 576L421.6 576C428.2 563.5 432 549.2 432 534L432 528C432 476.5 414.6 429.1 385.5 391.3C408.1 376.6 435.1 368 464 368z"/>
    </symbol>
    <symbol id="question-circle" viewBox="0 0 640 640">
        <path d="M320 576C461.4 576 576 461.4 576 320C576 178.6 461.4 64 320 64C178.6 64 64 178.6 64 320C64 461.4 178.6 576 320 576zM320 240C302.3 240 288 254.3 288 272C288 285.3 277.3 296 264 296C250.7 296 240 285.3 240 272C240 227.8 275.8 192 320 192C364.2 192 400 227.8 400 272C400 319.2 364 339.2 344 346.5L344 350.3C344 363.6 333.3 374.3 320 374.3C306.7 374.3 296 363.6 296 350.3L296 342.2C296 321.7 310.8 307 326.1 302C332.5 299.9 339.3 296.5 344.3 291.7C348.6 287.5 352 281.7 352 272.1C352 254.4 337.7 240.1 320 240.1zM288 432C288 414.3 302.3 400 320 400C337.7 400 352 414.3 352 432C352 449.7 337.7 464 320 464C302.3 464 288 449.7 288 432z"/>
    </symbol>
    <symbol id="info-circle" viewBox="0 0 640 640">
        <path d="M320 576C461.4 576 576 461.4 576 320C576 178.6 461.4 64 320 64C178.6 64 64 178.6 64 320C64 461.4 178.6 576 320 576zM288 224C288 206.3 302.3 192 320 192C337.7 192 352 206.3 352 224C352 241.7 337.7 256 320 256C302.3 256 288 241.7 288 224zM280 288L328 288C341.3 288 352 298.7 352 312L352 400L360 400C373.3 400 384 410.7 384 424C384 437.3 373.3 448 360 448L280 448C266.7 448 256 437.3 256 424C256 410.7 266.7 400 280 400L304 400L304 336L280 336C266.7 336 256 325.3 256 312C256 298.7 266.7 288 280 288z"/>
    </symbol>
    <symbol id="gear" viewBox="0 0 640 640">
        <path d="M259.1 73.5C262.1 58.7 275.2 48 290.4 48L350.2 48C365.4 48 378.5 58.7 381.5 73.5L396 143.5C410.1 149.5 423.3 157.2 435.3 166.3L503.1 143.8C517.5 139 533.3 145 540.9 158.2L570.8 210C578.4 223.2 575.7 239.8 564.3 249.9L511 297.3C511.9 304.7 512.3 312.3 512.3 320C512.3 327.7 511.8 335.3 511 342.7L564.4 390.2C575.8 400.3 578.4 417 570.9 430.1L541 481.9C533.4 495 517.6 501.1 503.2 496.3L435.4 473.8C423.3 482.9 410.1 490.5 396.1 496.6L381.7 566.5C378.6 581.4 365.5 592 350.4 592L290.6 592C275.4 592 262.3 581.3 259.3 566.5L244.9 496.6C230.8 490.6 217.7 482.9 205.6 473.8L137.5 496.3C123.1 501.1 107.3 495.1 99.7 481.9L69.8 430.1C62.2 416.9 64.9 400.3 76.3 390.2L129.7 342.7C128.8 335.3 128.4 327.7 128.4 320C128.4 312.3 128.9 304.7 129.7 297.3L76.3 249.8C64.9 239.7 62.3 223 69.8 209.9L99.7 158.1C107.3 144.9 123.1 138.9 137.5 143.7L205.3 166.2C217.4 157.1 230.6 149.5 244.6 143.4L259.1 73.5zM320.3 400C364.5 399.8 400.2 363.9 400 319.7C399.8 275.5 363.9 239.8 319.7 240C275.5 240.2 239.8 276.1 240 320.3C240.2 364.5 276.1 400.2 320.3 400z"/>
    </symbol>
    <symbol id="circle-user" viewBox="0 0 640 640">
        <path d="M463 448.2C440.9 409.8 399.4 384 352 384L288 384C240.6 384 199.1 409.8 177 448.2C212.2 487.4 263.2 512 320 512C376.8 512 427.8 487.3 463 448.2zM64 320C64 178.6 178.6 64 320 64C461.4 64 576 178.6 576 320C576 461.4 461.4 576 320 576C178.6 576 64 461.4 64 320zM320 336C359.8 336 392 303.8 392 264C392 224.2 359.8 192 320 192C280.2 192 248 224.2 248 264C248 303.8 280.2 336 320 336z"/>
    </symbol>
    <symbol id="power-off" viewBox="0 0 640 640">
        <path d="M352 64C352 46.3 337.7 32 320 32C302.3 32 288 46.3 288 64L288 320C288 337.7 302.3 352 320 352C337.7 352 352 337.7 352 320L352 64zM210.3 162.4C224.8 152.3 228.3 132.3 218.2 117.8C208.1 103.3 188.1 99.8 173.6 109.9C107.4 156.1 64 233 64 320C64 461.4 178.6 576 320 576C461.4 576 576 461.4 576 320C576 233 532.6 156.1 466.3 109.9C451.8 99.8 431.9 103.3 421.7 117.8C411.5 132.3 415.1 152.2 429.6 162.4C479.4 197.2 511.9 254.8 511.9 320C511.9 426 425.9 512 319.9 512C213.9 512 128 426 128 320C128 254.8 160.5 197.1 210.3 162.4z"/>
    </symbol>
    <symbol id="bell" viewBox="0 0 640 640">
        <path d="M320 64C302.3 64 288 78.3 288 96L288 99.2C215 114 160 178.6 160 256L160 277.7C160 325.8 143.6 372.5 113.6 410.1L103.8 422.3C98.7 428.6 96 436.4 96 444.5C96 464.1 111.9 480 131.5 480L508.4 480C528 480 543.9 464.1 543.9 444.5C543.9 436.4 541.2 428.6 536.1 422.3L526.3 410.1C496.4 372.5 480 325.8 480 277.7L480 256C480 178.6 425 114 352 99.2L352 96C352 78.3 337.7 64 320 64zM258 528C265.1 555.6 290.2 576 320 576C349.8 576 374.9 555.6 382 528L258 528z"/>
    </symbol>
    <symbol id="palette" viewBox="0 0 640 640">
        <path d="M576 320C576 320.9 576 321.8 576 322.7C575.6 359.2 542.4 384 505.9 384L408 384C381.5 384 360 405.5 360 432C360 435.4 360.4 438.7 361 441.9C363.1 452.1 367.5 461.9 371.8 471.8C377.9 485.6 383.9 499.3 383.9 513.8C383.9 545.6 362.3 574.5 330.5 575.8C327 575.9 323.5 576 319.9 576C178.5 576 63.9 461.4 63.9 320C63.9 178.6 178.6 64 320 64C461.4 64 576 178.6 576 320zM192 352C192 334.3 177.7 320 160 320C142.3 320 128 334.3 128 352C128 369.7 142.3 384 160 384C177.7 384 192 369.7 192 352zM192 256C209.7 256 224 241.7 224 224C224 206.3 209.7 192 192 192C174.3 192 160 206.3 160 224C160 241.7 174.3 256 192 256zM352 160C352 142.3 337.7 128 320 128C302.3 128 288 142.3 288 160C288 177.7 302.3 192 320 192C337.7 192 352 177.7 352 160zM448 256C465.7 256 480 241.7 480 224C480 206.3 465.7 192 448 192C430.3 192 416 206.3 416 224C416 241.7 430.3 256 448 256z"/>
    </symbol>
    <symbol id="lock" viewBox="0 0 640 640">
        <path d="M256 160L256 224L384 224L384 160C384 124.7 355.3 96 320 96C284.7 96 256 124.7 256 160zM192 224L192 160C192 89.3 249.3 32 320 32C390.7 32 448 89.3 448 160L448 224C483.3 224 512 252.7 512 288L512 512C512 547.3 483.3 576 448 576L192 576C156.7 576 128 547.3 128 512L128 288C128 252.7 156.7 224 192 224z"/>
    </symbol>
    <symbol id="plug" viewBox="0 0 640 640">
        <path d="M224 32C241.7 32 256 46.3 256 64L256 160L384 160L384 64C384 46.3 398.3 32 416 32C433.7 32 448 46.3 448 64L448 160L512 160C529.7 160 544 174.3 544 192C544 209.7 529.7 224 512 224L512 288C512 383.1 442.8 462.1 352 477.3L352 544C352 561.7 337.7 576 320 576C302.3 576 288 561.7 288 544L288 477.3C197.2 462.1 128 383.1 128 288L128 224C110.3 224 96 209.7 96 192C96 174.3 110.3 160 128 160L192 160L192 64C192 46.3 206.3 32 224 32z"/>
    </symbol>
    <symbol id="rocket" viewBox="0 0 640 640">
        <path d="M192 384L88.5 384C63.6 384 48.3 356.9 61.1 335.5L114 247.3C122.7 232.8 138.3 224 155.2 224L250.2 224C326.3 95.1 439.8 88.6 515.7 99.7C528.5 101.6 538.5 111.6 540.3 124.3C551.4 200.2 544.9 313.7 416 389.8L416 484.8C416 501.7 407.2 517.3 392.7 526L304.5 578.9C283.2 591.7 256 576.3 256 551.5L256 448C256 412.7 227.3 384 192 384L191.9 384zM464 224C464 197.5 442.5 176 416 176C389.5 176 368 197.5 368 224C368 250.5 389.5 272 416 272C442.5 272 464 250.5 464 224z"/>
    </symbol>
    <symbol id="users" viewBox="0 0 640 640">
        <path d="M320 80C377.4 80 424 126.6 424 184C424 241.4 377.4 288 320 288C262.6 288 216 241.4 216 184C216 126.6 262.6 80 320 80zM96 152C135.8 152 168 184.2 168 224C168 263.8 135.8 296 96 296C56.2 296 24 263.8 24 224C24 184.2 56.2 152 96 152zM0 480C0 409.3 57.3 352 128 352C140.8 352 153.2 353.9 164.9 357.4C132 394.2 112 442.8 112 496L112 512C112 523.4 114.4 534.2 118.7 544L32 544C14.3 544 0 529.7 0 512L0 480zM521.3 544C525.6 534.2 528 523.4 528 512L528 496C528 442.8 508 394.2 475.1 357.4C486.8 353.9 499.2 352 512 352C582.7 352 640 409.3 640 480L640 512C640 529.7 625.7 544 608 544L521.3 544zM472 224C472 184.2 504.2 152 544 152C583.8 152 616 184.2 616 224C616 263.8 583.8 296 544 296C504.2 296 472 263.8 472 224zM160 496C160 407.6 231.6 336 320 336C408.4 336 480 407.6 480 496L480 512C480 529.7 465.7 544 448 544L192 544C174.3 544 160 529.7 160 512L160 496z"/>
    </symbol>
    <symbol id="credit-card" viewBox="0 0 640 640">
        <path d="M64 192L64 224L576 224L576 192C576 156.7 547.3 128 512 128L128 128C92.7 128 64 156.7 64 192zM64 272L64 448C64 483.3 92.7 512 128 512L512 512C547.3 512 576 483.3 576 448L576 272L64 272zM128 424C128 410.7 138.7 400 152 400L200 400C213.3 400 224 410.7 224 424C224 437.3 213.3 448 200 448L152 448C138.7 448 128 437.3 128 424zM272 424C272 410.7 282.7 400 296 400L360 400C373.3 400 384 410.7 384 424C384 437.3 373.3 448 360 448L296 448C282.7 448 272 437.3 272 424z"/>
    </symbol>
    <symbol id="shield-halved" viewBox="0 0 640 640">
        <path d="M320 64C324.6 64 329.2 65 333.4 66.9L521.8 146.8C543.8 156.1 560.2 177.8 560.1 204C559.6 303.2 518.8 484.7 346.5 567.2C329.8 575.2 310.4 575.2 293.7 567.2C121.3 484.7 80.6 303.2 80.1 204C80 177.8 96.4 156.1 118.4 146.8L306.7 66.9C310.9 65 315.4 64 320 64zM320 130.8L320 508.9C458 442.1 495.1 294.1 496 205.5L320 130.9L320 130.9z"/>
    </symbol>
    <symbol id="chevron-down" viewBox="0 0 640 640">
        <path d="M297.4 470.6C309.9 483.1 330.2 483.1 342.7 470.6L534.7 278.6C547.2 266.1 547.2 245.8 534.7 233.3C522.2 220.8 501.9 220.8 489.4 233.3L320 402.7L150.6 233.4C138.1 220.9 117.8 220.9 105.3 233.4C92.8 245.9 92.8 266.2 105.3 278.7L297.3 470.7z"/>
    </symbol>
    <symbol id="chevron-up" viewBox="0 0 640 640">
        <path d="M297.4 169.4C309.9 156.9 330.2 156.9 342.7 169.4L534.7 361.4C547.2 373.9 547.2 394.2 534.7 406.7C522.2 419.2 501.9 419.2 489.4 406.7L320 237.3L150.6 406.6C138.1 419.1 117.8 419.1 105.3 406.6C92.8 394.1 92.8 373.8 105.3 361.3L297.3 169.3z"/>
    </symbol>
    <symbol id="chevron-right" viewBox="0 0 640 640">
        <path d="M471.1 297.4C483.6 309.9 483.6 330.2 471.1 342.7L279.1 534.7C266.6 547.2 246.3 547.2 233.8 534.7C221.3 522.2 221.3 501.9 233.8 489.4L403.2 320L233.9 150.6C221.4 138.1 221.4 117.8 233.9 105.3C246.4 92.8 266.7 92.8 279.2 105.3L471.2 297.3z"/>
    </symbol>
    <symbol id="magnifying-glass" viewBox="0 0 640 640">
        <path d="M480 272C480 317.9 465.1 360.3 440 394.7L566.6 521.4C579.1 533.9 579.1 554.2 566.6 566.7C554.1 579.2 533.8 579.2 521.3 566.7L394.7 440C360.3 465.1 317.9 480 272 480C157.1 480 64 386.9 64 272C64 157.1 157.1 64 272 64C386.9 64 480 157.1 480 272zM272 416C351.5 416 416 351.5 416 272C416 192.5 351.5 128 272 128C192.5 128 128 192.5 128 272C128 351.5 192.5 416 272 416z"/>
    </symbol>
    <symbol id="check" viewBox="0 0 640 640">
        <path d="M530.8 134.1C545.1 144.5 548.3 164.5 537.9 178.8L281.9 530.8C276.4 538.4 267.9 543.1 258.5 543.9C249.1 544.7 240 541.2 233.4 534.6L105.4 406.6C92.9 394.1 92.9 373.8 105.4 361.3C117.9 348.8 138.2 348.8 150.7 361.3L252.2 462.8L486.2 141.1C496.6 126.8 516.6 123.6 530.9 134z"/>
    </symbol>
    <symbol id="xmark" viewBox="0 0 640 640">
        <path d="M183.1 137.4C170.6 124.9 150.3 124.9 137.8 137.4C125.3 149.9 125.3 170.2 137.8 182.7L275.2 320L137.9 457.4C125.4 469.9 125.4 490.2 137.9 502.7C150.4 515.2 170.7 515.2 183.2 502.7L320.5 365.3L457.9 502.6C470.4 515.1 490.7 515.1 503.2 502.6C515.7 490.1 515.7 469.8 503.2 457.3L365.8 320L503.1 182.6C515.6 170.1 515.6 149.8 503.1 137.3C490.6 124.8 470.3 124.8 457.8 137.3L320.5 274.7L183.1 137.4z"/>
    </symbol>
    <symbol id="arrow-right" viewBox="0 0 640 640">
        <path d="M566.6 342.6C579.1 330.1 579.1 309.8 566.6 297.3L406.6 137.3C394.1 124.8 373.8 124.8 361.3 137.3C348.8 149.8 348.8 170.1 361.3 182.6L466.7 288L96 288C78.3 288 64 302.3 64 320C64 337.7 78.3 352 96 352L466.7 352L361.3 457.4C348.8 469.9 348.8 490.2 361.3 502.7C373.8 515.2 394.1 515.2 406.6 502.7L566.6 342.7z"/>
    </symbol>
    <symbol id="arrow-left" viewBox="0 0 640 640">
        <path d="M73.4 297.4C60.9 309.9 60.9 330.2 73.4 342.7L233.4 502.7C245.9 515.2 266.2 515.2 278.7 502.7C291.2 490.2 291.2 469.9 278.7 457.4L173.3 352L544 352C561.7 352 576 337.7 576 320C576 302.3 561.7 288 544 288L173.3 288L278.7 182.6C291.2 170.1 291.2 149.8 278.7 137.3C266.2 124.8 245.9 124.8 233.4 137.3L73.4 297.3z"/>
    </symbol>
    <symbol id="ellipsis-vertical" viewBox="0 0 640 640">
        <path d="M320 208C289.1 208 264 182.9 264 152C264 121.1 289.1 96 320 96C350.9 96 376 121.1 376 152C376 182.9 350.9 208 320 208zM320 432C350.9 432 376 457.1 376 488C376 518.9 350.9 544 320 544C289.1 544 264 518.9 264 488C264 457.1 289.1 432 320 432zM376 320C376 350.9 350.9 376 320 376C289.1 376 264 350.9 264 320C264 289.1 289.1 264 320 264C350.9 264 376 289.1 376 320z"/>
    </symbol>
    <symbol id="filter" viewBox="0 0 640 640">
        <path d="M96 128C83.1 128 71.4 135.8 66.4 147.8C61.4 159.8 64.2 173.5 73.4 182.6L256 365.3L256 480C256 488.5 259.4 496.6 265.4 502.6L329.4 566.6C338.6 575.8 352.3 578.5 364.3 573.5C376.3 568.5 384 556.9 384 544L384 365.3L566.6 182.7C575.8 173.5 578.5 159.8 573.5 147.8C568.5 135.8 556.9 128 544 128L96 128z"/>
    </symbol>
    <symbol id="sort" viewBox="0 0 640 640">
        <path d="M130.4 268.2C135.4 280.2 147 288 160 288L480 288C492.9 288 504.6 280.2 509.6 268.2C514.6 256.2 511.8 242.5 502.7 233.3L342.7 73.3C330.2 60.8 309.9 60.8 297.4 73.3L137.4 233.3C128.2 242.5 125.5 256.2 130.5 268.2zM130.4 371.7C125.4 383.7 128.2 397.4 137.3 406.6L297.3 566.6C309.8 579.1 330.1 579.1 342.6 566.6L502.6 406.6C511.8 397.4 514.5 383.7 509.5 371.7C504.5 359.7 492.9 352 480 352L160 352C147.1 352 135.4 359.8 130.4 371.8z"/>
    </symbol>
    <symbol id="table" viewBox="0 0 640 640">
        <path d="M480 96C515.3 96 544 124.7 544 160L544 480C544 515.3 515.3 544 480 544L160 544L153.5 543.7C121.2 540.4 96 513.1 96 480L96 160C96 124.7 124.7 96 160 96L480 96zM160 384L160 480L288 480L288 384L160 384zM352 384L352 480L480 480L480 384L352 384zM160 320L288 320L288 224L160 224L160 320zM352 320L480 320L480 224L352 224L352 320z"/>
    </symbol>
    <symbol id="table-cells" viewBox="0 0 640 640">
        <path d="M480 160L480 224L416 224L416 160L480 160zM480 288L480 352L416 352L416 288L480 288zM480 416L480 480L416 480L416 416L480 416zM352 352L288 352L288 288L352 288L352 352zM288 416L352 416L352 480L288 480L288 416zM224 352L160 352L160 288L224 288L224 352zM160 416L224 416L224 480L160 480L160 416zM160 224L160 160L224 160L224 224L160 224zM288 224L288 160L352 160L352 224L288 224zM160 96C124.7 96 96 124.7 96 160L96 480C96 515.3 124.7 544 160 544L480 544C515.3 544 544 515.3 544 480L544 160C544 124.7 515.3 96 480 96L160 96z"/>
    </symbol>
    <symbol id="table-columns" viewBox="0 0 640 640">
        <path d="M96 160C96 124.7 124.7 96 160 96L480 96C515.3 96 544 124.7 544 160L544 480C544 515.3 515.3 544 480 544L160 544C124.7 544 96 515.3 96 480L96 160zM160 224L160 480L288 480L288 224L160 224zM480 224L352 224L352 480L480 480L480 224z"/>
    </symbol>
    <symbol id="table-list" viewBox="0 0 640 640">
        <path d="M96 160C96 124.7 124.7 96 160 96L480 96C515.3 96 544 124.7 544 160L544 480C544 515.3 515.3 544 480 544L160 544C124.7 544 96 515.3 96 480L96 160zM160 160L160 224L224 224L224 160L160 160zM480 160L288 160L288 224L480 224L480 160zM160 288L160 352L224 352L224 288L160 288zM480 288L288 288L288 352L480 352L480 288zM160 416L160 480L224 480L224 416L160 416zM480 416L288 416L288 480L480 480L480 416z"/>
    </symbol>
    <symbol id="circle-play" viewBox="0 0 640 640">
        <path d="M64 320C64 178.6 178.6 64 320 64C461.4 64 576 178.6 576 320C576 461.4 461.4 576 320 576C178.6 576 64 461.4 64 320zM252.3 211.1C244.7 215.3 240 223.4 240 232L240 408C240 416.7 244.7 424.7 252.3 428.9C259.9 433.1 269.1 433 276.6 428.4L420.6 340.4C427.7 336 432.1 328.3 432.1 319.9C432.1 311.5 427.7 303.8 420.6 299.4L276.6 211.4C269.2 206.9 259.9 206.7 252.3 210.9z"/>
    </symbol>
    <symbol id="circle-check" viewBox="0 0 640 640">
        <path d="M320 576C178.6 576 64 461.4 64 320C64 178.6 178.6 64 320 64C461.4 64 576 178.6 576 320C576 461.4 461.4 576 320 576zM438 209.7C427.3 201.9 412.3 204.3 404.5 215L285.1 379.2L233 327.1C223.6 317.7 208.4 317.7 199.1 327.1C189.8 336.5 189.7 351.7 199.1 361L271.1 433C276.1 438 282.9 440.5 289.9 440C296.9 439.5 303.3 435.9 307.4 430.2L443.3 243.2C451.1 232.5 448.7 217.5 438 209.7z"/>
    </symbol>
    <symbol id="star" viewBox="0 0 640 640">
        <path d="M341.5 45.1C337.4 37.1 329.1 32 320.1 32C311.1 32 302.8 37.1 298.7 45.1L225.1 189.3L65.2 214.7C56.3 216.1 48.9 222.4 46.1 231C43.3 239.6 45.6 249 51.9 255.4L166.3 369.9L141.1 529.8C139.7 538.7 143.4 547.7 150.7 553C158 558.3 167.6 559.1 175.7 555L320.1 481.6L464.4 555C472.4 559.1 482.1 558.3 489.4 553C496.7 547.7 500.4 538.8 499 529.8L473.7 369.9L588.1 255.4C594.5 249 596.7 239.6 593.9 231C591.1 222.4 583.8 216.1 574.8 214.7L415 189.3L341.5 45.1z"/>
    </symbol>
    <symbol id="calendar" viewBox="0 0 640 640">
        <path d="M224 64C206.3 64 192 78.3 192 96L192 128L160 128C124.7 128 96 156.7 96 192L96 240L544 240L544 192C544 156.7 515.3 128 480 128L448 128L448 96C448 78.3 433.7 64 416 64C398.3 64 384 78.3 384 96L384 128L256 128L256 96C256 78.3 241.7 64 224 64zM96 288L96 480C96 515.3 124.7 544 160 544L480 544C515.3 544 544 515.3 544 480L544 288L96 288z"/>
    </symbol>
    <symbol id="plus" viewBox="0 0 640 640">
        <path d="M352 128C352 110.3 337.7 96 320 96C302.3 96 288 110.3 288 128L288 288L128 288C110.3 288 96 302.3 96 320C96 337.7 110.3 352 128 352L288 352L288 512C288 529.7 302.3 544 320 544C337.7 544 352 529.7 352 512L352 352L512 352C529.7 352 544 337.7 544 320C544 302.3 529.7 288 512 288L352 288L352 128z"/>
    </symbol>
</svg>
