<svg xmlns="http://www.w3.org/2000/svg">
    <!--!Font Awesome Free v7.1.0 by @fontawesome - https://fontawesome.com License - https://fontawesome.com/license/free Copyright 2025 Fonticons, Inc.-->
    <symbol id="creative-commons" viewBox="0 0 100 100" fill="#bbb">
        <path d="M49.5564 41.7053L42.8629 45.1925C40.9677 41.2417 37.7823 41.1812 37.3185 41.1812C32.8629 41.1812 30.625 44.1242 30.625 50.0101C30.625 54.7672 32.4798 58.8389 37.3185 58.8389C40.2419 58.8389 42.2782 57.4078 43.4879 54.5455L49.6573 57.6698C48.4073 59.9879 44.4758 65.5311 36.5323 65.5311C31.9758 65.5311 21.6129 63.455 21.6129 50.0101C21.6129 38.1778 30.2823 34.4689 36.25 34.4689C42.4395 34.4689 46.875 36.8676 49.5564 41.7053ZM78.3871 41.7053L71.7742 45.1925C69.8589 41.2014 66.5927 41.1812 66.1492 41.1812C61.6935 41.1812 59.4556 44.1242 59.4556 50.0101C59.4556 54.747 61.3105 58.8389 66.1492 58.8389C69.0524 58.8389 71.1089 57.4078 72.2984 54.5455L78.5484 57.6698C78.125 58.4358 74.2339 65.5311 65.4234 65.5311C60.8468 65.5311 50.504 63.5356 50.504 50.0101C50.504 38.1778 59.1734 34.4689 65.1411 34.4689C71.3306 34.4689 75.746 36.8676 78.3669 41.7053H78.3871ZM49.9194 0C21.1089 0 0 23.201 0 50.0101C0 77.9077 22.9032 100 49.9194 100C76.1089 100 100 79.6614 100 50.0101C100 22.2133 78.5081 0 49.9194 0ZM50.1008 90.8688C27.4194 90.8688 9.03226 72.1226 9.03226 49.9899C9.03226 28.7442 26.25 9.01028 50.1008 9.01028C72.7823 9.01028 90.9879 27.051 90.9879 49.9899C90.9879 74.5213 70.8871 90.8688 50.1008 90.8688Z"/>
    </symbol>
    <symbol id="creative-commons-by" viewBox="0 0 100 100" fill="#bbb">
        <path d="M63.4879 37.5806V58.0242H57.7823V82.3185H42.2379V58.0444H36.5323V37.5806C36.5323 36.6935 36.8548 35.9274 37.4597 35.3024C38.0847 34.6774 38.8508 34.3548 39.7379 34.3548H60.2823C61.1089 34.3548 61.8548 34.6774 62.5202 35.3024C63.1452 35.9476 63.4879 36.6935 63.4879 37.5806ZM56.9355 24.5766C56.9758 28.4274 53.9113 31.5726 50.0605 31.6129C46.2097 31.6532 43.0645 28.5887 43.0242 24.7379C42.9839 20.8871 46.0484 17.7419 49.8992 17.7016C53.75 17.6613 56.8952 20.7258 56.9355 24.5766ZM49.9194 0C78.5081 0 100 22.1976 100 50C100 79.6573 76.1089 100 49.9194 100C22.9032 100 0 77.9234 0 50C0 23.2056 21.1089 0 49.9194 0ZM50.0806 9.0121C26.25 9.0121 9.0121 28.75 9.0121 50C9.0121 72.1371 27.3992 90.8871 50.0806 90.8871C70.8871 90.8871 90.9677 74.5363 90.9677 50C90.9879 27.0565 72.7823 9.0121 50.0806 9.0121Z"/>
    </symbol>
    <symbol id="creative-commons-nc" viewBox="0 0 100 100" fill="#bbb">
        <path d="M49.9194 0C78.1048 0 100 21.754 100 50C100 79.6774 76.1089 100 49.9194 100C22.8024 100 0 77.6613 0 50C0 23.2056 21.1089 0 49.9194 0ZM11.25 36.5121C9.75807 40.625 9.0121 45.121 9.0121 50C9.0121 72.3589 27.5806 90.8065 50.0806 90.8065C74.7581 90.8065 85.8065 70.2823 86.0685 69.8185L67.2379 61.4315C65.6855 68.9113 58.9314 72.1169 53.4879 72.6008V80.2823H47.6815V72.5806C42.1371 72.5202 37.0766 70.5242 32.5 66.5927L39.375 59.6371C45.7661 65.5645 56.7944 66.0484 56.7944 59.1936C56.7944 57.9436 56.3508 56.9355 55.4637 56.1492C52.6008 54.9395 55.1008 56.129 11.25 36.5121ZM50.0806 8.93145C42.3387 8.93145 27.4194 10.6855 15.7056 27.6815L34.8185 36.25C36.8347 29.9395 42.9637 27.6008 47.6815 27.3185V19.6371H53.4879V27.3185C58.0645 27.5605 62.2379 29.1129 65.9879 31.9556L59.4758 38.6492C50.8669 32.621 42.6411 37.0363 45.3629 40.8871C56.129 45.746 54.1935 44.879 64.1129 49.2742L89.7379 60.7056C90.5645 57.1976 90.9879 53.629 90.9879 50C90.9879 38.5081 86.996 28.8306 79.0323 20.9879C71.1089 12.9435 61.4516 8.93145 50.0806 8.93145Z"/>
    </symbol>
    <symbol id="creative-commons-sa" viewBox="0 0 100 100" fill="#bbb">
        <path d="M49.9194 0C78.5081 0 100 22.1976 100 50C100 79.6573 76.1089 100 49.9194 100C22.9032 100 0 77.9234 0 50C0 23.2056 21.1089 0 49.9194 0ZM50.0806 9.0121C26.25 9.0121 9.0121 28.75 9.0121 50C9.0121 72.1371 27.3992 90.8871 50.0806 90.8871C70.8871 90.8871 90.9677 74.5363 90.9677 50C90.9879 27.0565 72.7823 9.0121 50.0806 9.0121ZM27.7621 42.9435C30.3831 26.0282 43.9919 23.6492 49.7177 23.6492C69.8387 23.6492 75.4234 40.2823 75.4234 50.7056C75.4234 63.5282 67.1573 77.5 49.4355 77.5C41.5927 77.5 29.4556 73.4677 27.379 57.9435H39.9798C40.2823 64.0121 43.9314 67.0565 50.9677 67.0565C55.6653 67.0565 62.6613 63.3871 62.6613 50.3629C62.6613 33.7298 52.7621 34.1129 51.2298 34.1129C44.5565 34.1129 40.8064 37.0565 39.9798 42.9435H43.6492L33.7298 52.8629L23.8508 42.9435H27.7621Z"/>
    </symbol>
</svg>
