<svg xmlns="http://www.w3.org/2000/svg">
    <symbol id="TailwindCSS" viewBox="0 0 40 40">
        <path fill-rule="evenodd" clip-rule="evenodd" d="M12.5 17C13.5 13 16 11 20 11C26 11 26.75 15.5 29.75 16.25C31.75 16.7502 33.5 16.0002 35 14C34 18 31.5 20 27.5 20C21.5 20 20.75 15.5 17.75 14.75C15.75 14.25 14 15 12.5 17ZM5 26C6 22 8.5 20 12.5 20C18.5 20 19.25 24.5 22.25 25.25C24.25 25.7502 26 25.0002 27.5 23C26.5 27 24 29 20 29C14 29 13.25 24.5 10.25 23.75C8.25 23.2498 6.5 23.9998 5 26Z" fill="url(#paint0_linear_311_3850)"/>
        <defs>
        <linearGradient id="paint0_linear_311_3850" x1="13.0833" y1="11" x2="25.9167" y2="29.5833" gradientUnits="userSpaceOnUse">
        <stop stop-color="#32B1C1"/>
        <stop offset="1" stop-color="#14C6B7"/>
        </linearGradient>
        </defs>
    </symbol>
    <symbol  id="React" viewBox="0 0 40 40" fill="none">
        <path d="M20 22.8876C21.61 22.8876 22.915 21.5825 22.915 19.9726C22.915 18.3628 21.61 17.0576 20 17.0576C18.39 17.0576 17.085 18.3628 17.085 19.9726C17.085 21.5825 18.3901 22.8876 20 22.8876Z" fill="#00D8FF"/>
        <path d="M20.0003 14.0458C23.9141 14.0458 27.5498 14.6073 30.2912 15.5512C33.5942 16.6883 35.625 18.4119 35.625 19.9727C35.625 21.5991 33.4728 23.4302 29.9258 24.6053C27.2442 25.4937 23.7155 25.9575 20.0003 25.9575C16.1912 25.9575 12.5842 25.5222 9.87234 24.5955C6.44141 23.4228 4.375 21.5681 4.375 19.9727C4.375 18.4245 6.31406 16.7142 9.57062 15.5789C12.3222 14.6195 16.0477 14.0458 19.9997 14.0458H20.0003Z" stroke="#00D8FF" stroke-width="0.556938"/>
        <path d="M14.8402 17.0262C16.7955 13.6359 19.0982 10.7668 21.2854 8.8637C23.9204 6.57042 26.4282 5.67229 27.7801 6.45182C29.189 7.26432 29.7001 10.0437 28.9462 13.7034C28.3766 16.4701 27.0151 19.7585 25.159 22.977C23.256 26.2767 21.0771 29.1839 18.9198 31.0695C16.1899 33.4557 13.5507 34.3193 12.1687 33.5223C10.8276 32.7495 10.3148 30.2149 10.9582 26.8267C11.5018 23.9637 12.866 20.4498 14.8396 17.0262H14.8402Z" stroke="#00D8FF" stroke-width="0.556938"/>
        <path d="M14.8457 22.9857C12.885 19.5991 11.55 16.1707 10.9928 13.3254C10.322 9.89707 10.7962 7.27598 12.147 6.4941C13.5546 5.6791 16.2176 6.62442 19.0117 9.10535C21.1242 10.981 23.2934 13.8024 25.1548 17.0177C27.0632 20.3143 28.4935 23.6541 29.05 26.4647C29.754 30.0216 29.1842 32.7393 27.8034 33.5385C26.4637 34.3141 24.012 33.493 21.3978 31.2433C19.189 29.3427 16.8259 26.406 14.8457 22.9857Z" stroke="#00D8FF" stroke-width="0.556938"/>
    </symbol>
    <symbol id="JavaScript" viewBox="0 0 40 40">
        <path d="M10.5177 33.4268L13.5787 31.5743C14.1693 32.6213 14.7065 33.5072 15.9951 33.5072C17.2302 33.5072 18.009 33.0241 18.009 31.1447V18.3638H21.768V31.1979C21.768 35.0911 19.4859 36.8633 16.1562 36.8633C13.1491 36.8633 11.4037 35.306 10.5176 33.4265M23.8098 33.024L26.8704 31.2519C27.6762 32.5677 28.7234 33.5343 30.5759 33.5343C32.1335 33.5343 33.1266 32.7555 33.1266 31.6815C33.1266 30.3927 32.1063 29.9361 30.3879 29.1846L29.4484 28.7816C26.7363 27.6272 24.9373 26.1772 24.9373 23.1163C24.9373 20.2969 27.0854 18.1488 30.4418 18.1488C32.8315 18.1488 34.5499 18.9813 35.7849 21.1561L32.8582 23.0357C32.2137 21.8811 31.5159 21.4247 30.4418 21.4247C29.3409 21.4247 28.6427 22.1229 28.6427 23.0357C28.6427 24.1633 29.3409 24.6199 30.9518 25.3182L31.8915 25.7208C35.0866 27.0904 36.8857 28.4863 36.8857 31.6277C36.8857 35.0111 34.2276 36.8636 30.6565 36.8636C27.166 36.8636 24.9105 35.199 23.8098 33.024Z" fill="#F0DB4F"/>
    </symbol>
    <symbol id="Python" viewBox="0 0 40 40">
        <path d="M19.8918 5C12.276 5 12.7515 8.32001 12.7515 8.32001L12.7601 11.7594H20.0277V12.7923H9.87333C9.87333 12.7923 5 12.2365 5 19.9611C5 27.6858 9.25353 27.4121 9.25353 27.4121H11.7921V23.8275C11.7921 23.8275 11.6553 19.5516 15.9778 19.5516H23.1859C23.1859 19.5516 27.2357 19.6174 27.2357 15.617V9.00277C27.2357 9.00277 27.8506 5 19.8918 5ZM15.8844 7.31291C16.0561 7.31277 16.2262 7.34667 16.3849 7.41268C16.5436 7.47868 16.6878 7.5755 16.8093 7.69758C16.9307 7.81966 17.027 7.96461 17.0927 8.12415C17.1584 8.28368 17.1921 8.45466 17.1919 8.62731C17.1921 8.79995 17.1583 8.97091 17.0927 9.13043C17.027 9.28994 16.9307 9.43488 16.8092 9.55695C16.6878 9.67901 16.5436 9.77581 16.3849 9.84181C16.2262 9.9078 16.0561 9.9417 15.8844 9.94156C15.7127 9.94168 15.5426 9.90777 15.3839 9.84176C15.2253 9.77576 15.0811 9.67896 14.9597 9.55689C14.8382 9.43483 14.7419 9.2899 14.6763 9.13039C14.6106 8.97089 14.5769 8.79993 14.577 8.62731C14.5769 8.45467 14.6106 8.2837 14.6762 8.12418C14.7419 7.96466 14.8382 7.81971 14.9596 7.69763C15.081 7.57555 15.2252 7.47874 15.3839 7.41272C15.5426 7.34671 15.7127 7.31279 15.8844 7.31291Z" fill="#3B7BAF"/>
        <path d="M20.1081 35C27.7238 35 27.2483 31.6802 27.2483 31.6802L27.2398 28.2406H19.9722V27.2079H30.1265C30.1265 27.2079 34.9998 27.7635 34.9998 20.0387C34.9998 12.314 30.7463 12.5879 30.7463 12.5879H28.2077V16.1726C28.2077 16.1726 28.3445 20.4484 24.022 20.4484H16.8139C16.8139 20.4484 12.7639 20.3825 12.7639 24.3829V30.9973C12.7639 30.9973 12.1491 35 20.1081 35ZM24.1154 32.6871C23.9437 32.6873 23.7736 32.6534 23.6149 32.5874C23.4562 32.5214 23.3121 32.4246 23.1906 32.3025C23.0692 32.1804 22.9729 32.0355 22.9072 31.876C22.8415 31.7165 22.8078 31.5455 22.8079 31.3729C22.8078 31.2002 22.8415 31.0292 22.9071 30.8697C22.9728 30.7102 23.0691 30.5652 23.1906 30.4431C23.312 30.3211 23.4562 30.2242 23.6149 30.1582C23.7736 30.0922 23.9437 30.0583 24.1154 30.0585C24.2872 30.0583 24.4573 30.0922 24.616 30.1582C24.7747 30.2242 24.9189 30.3211 25.0403 30.4431C25.1618 30.5652 25.2581 30.7102 25.3237 30.8697C25.3894 31.0292 25.4231 31.2002 25.423 31.3729C25.4231 31.5455 25.3894 31.7165 25.3237 31.876C25.258 32.0355 25.1617 32.1804 25.0403 32.3025C24.9188 32.4246 24.7746 32.5214 24.6159 32.5874C24.4573 32.6534 24.2872 32.6873 24.1154 32.6871Z" fill="#F2D656"/>
    </symbol>
    <symbol id="PHP" viewBox="0 0 40 40">
        <path d="M7.40359 15.6441H11.8423C13.1452 15.6551 14.0892 16.0305 14.6745 16.7703C15.2597 17.51 15.453 18.5203 15.2542 19.8013C15.1769 20.3865 15.0058 20.9607 14.7408 21.5238C14.4868 22.0869 14.1335 22.5948 13.6808 23.0475C13.1287 23.6216 12.538 23.986 11.9086 24.1407C11.2791 24.2952 10.6277 24.3725 9.95422 24.3725H7.96672L7.33734 27.5194H5.03516L7.40359 15.6441ZM9.34141 17.5322L8.34766 22.501C8.41391 22.512 8.48016 22.5175 8.54641 22.5175H8.77828C9.83839 22.5286 10.7217 22.4237 11.4283 22.2028C12.1349 21.971 12.6097 21.1649 12.8527 19.7847C13.0514 18.6253 12.8527 17.9573 12.2564 17.7807C11.6712 17.6041 10.9369 17.5213 10.0536 17.5322C9.9212 17.5433 9.79422 17.5488 9.67266 17.5488H9.32484L9.34141 17.5322ZM17.8767 12.4807H20.1623L19.5164 15.6441H21.5702C22.6963 15.6663 23.5355 15.8982 24.0877 16.3397C24.6508 16.7814 24.8164 17.6205 24.5845 18.8572L23.4748 24.3725H21.1561L22.2161 19.1057C22.3264 18.5536 22.2933 18.1616 22.1167 17.9297C21.9402 17.6978 21.5592 17.5819 20.9739 17.5819L19.1355 17.5653L17.7773 24.3725H15.4917L17.8767 12.4807ZM27.0389 15.6441H31.4777C32.7805 15.6551 33.7245 16.0305 34.3098 16.7703C34.8951 17.51 35.0883 18.5203 34.8895 19.8013C34.8122 20.3865 34.6411 20.9607 34.3761 21.5238C34.1221 22.0869 33.7688 22.5948 33.3161 23.0475C32.764 23.6216 32.1733 23.986 31.5439 24.1407C30.9144 24.2952 30.263 24.3725 29.5895 24.3725H27.602L26.9727 27.5194H24.6705L27.0389 15.6441ZM28.9767 17.5322L27.983 22.501C28.0492 22.512 28.1155 22.5175 28.1817 22.5175H28.4136C29.4737 22.5286 30.357 22.4237 31.0636 22.2028C31.7703 21.971 32.2451 21.1649 32.488 19.7847C32.6867 18.6253 32.488 17.9573 31.8917 17.7807C31.3065 17.6041 30.5722 17.5213 29.6889 17.5322C29.5564 17.5433 29.4294 17.5488 29.308 17.5488H28.9602L28.9767 17.5322Z" fill="#9CA1E2"/>
    </symbol>
    <symbol id="Figma" viewBox="0 0 40 40">
        <path fill-rule="evenodd" clip-rule="evenodd" d="M9.5 10.6252C9.5 12.5808 10.5175 14.3059 12.0599 15.3128C11.2726 15.8261 10.6269 16.5227 10.1802 17.3406C9.73353 18.1585 9.49986 19.0723 9.5 20.0004C9.5 21.9561 10.5175 23.6812 12.0599 24.6881C11.235 25.2259 10.5661 25.9646 10.1185 26.832C9.67095 27.6995 9.46 28.6662 9.50625 29.6376C9.55251 30.6091 9.85439 31.5522 10.3824 32.3748C10.9105 33.1975 11.6466 33.8717 12.5191 34.3315C13.3915 34.7913 14.3704 35.0211 15.3603 34.9985C16.3501 34.9758 17.3171 34.7015 18.1668 34.2023C19.0165 33.703 19.7199 32.9959 20.2084 32.15C20.6968 31.3041 20.9537 30.3482 20.9538 29.3757V24.193C21.5404 24.7075 22.2285 25.0979 22.9753 25.3398C23.7221 25.5816 24.5117 25.6698 25.2947 25.5988C26.0778 25.5279 26.8376 25.2993 27.5267 24.9272C28.2159 24.5552 28.8197 24.0478 29.3005 23.4366C29.7812 22.8253 30.1287 22.1234 30.3212 21.3745C30.5137 20.6256 30.5471 19.8458 30.4194 19.0836C30.2916 18.3215 30.0055 17.5934 29.5787 16.9446C29.1519 16.2958 28.5937 15.7404 27.9388 15.3128C28.9641 14.6448 29.7431 13.6701 30.1605 12.5333C30.5778 11.3964 30.6113 10.1577 30.256 9.0007C29.9007 7.84367 29.1754 6.8298 28.1877 6.10923C27.1999 5.38867 26.0022 4.99972 24.7718 5H15.2269C13.708 5 12.2514 5.59265 11.1774 6.64757C10.1034 7.70249 9.5 9.13328 9.5 10.6252ZM24.7718 14.3753C25.7844 14.3753 26.7555 13.9802 27.4715 13.2769C28.1875 12.5736 28.5897 11.6198 28.5897 10.6252C28.5897 9.63057 28.1875 8.67672 27.4715 7.97343C26.7555 7.27015 25.7844 6.87505 24.7718 6.87505H20.9538V14.3753H24.7718ZM20.9538 20.0004C20.9538 20.995 21.3561 21.9489 22.0721 22.6522C22.7881 23.3554 23.7592 23.7505 24.7718 23.7505C25.7844 23.7505 26.7555 23.3554 27.4715 22.6522C28.1875 21.9489 28.5897 20.995 28.5897 20.0004C28.5897 19.0058 28.1875 18.052 27.4715 17.3487C26.7555 16.6454 25.7844 16.2503 24.7718 16.2503C23.7592 16.2503 22.7881 16.6454 22.0721 17.3487C21.3561 18.052 20.9538 19.0058 20.9538 20.0004ZM19.0449 23.7505H15.2269C14.2143 23.7505 13.2432 23.3554 12.5272 22.6522C11.8112 21.9489 11.409 20.995 11.409 20.0004C11.409 19.0058 11.8112 18.052 12.5272 17.3487C13.2432 16.6454 14.2143 16.2503 15.2269 16.2503H19.0449V23.7505ZM15.2269 25.6256H19.0449V29.3757C19.0449 30.1174 18.8209 30.8424 18.4014 31.4591C17.9819 32.0758 17.3856 32.5565 16.688 32.8403C15.9903 33.1242 15.2227 33.1984 14.4821 33.0537C13.7415 32.909 13.0612 32.5519 12.5272 32.0274C11.9933 31.503 11.6296 30.8348 11.4823 30.1073C11.335 29.3799 11.4106 28.6258 11.6996 27.9406C11.9886 27.2553 12.4779 26.6697 13.1058 26.2576C13.7336 25.8455 14.4718 25.6256 15.2269 25.6256ZM19.0449 14.3753H15.2269C14.2143 14.3753 13.2432 13.9802 12.5272 13.2769C11.8112 12.5736 11.409 11.6198 11.409 10.6252C11.409 9.63057 11.8112 8.67672 12.5272 7.97343C13.2432 7.27015 14.2143 6.87505 15.2269 6.87505H19.0449V14.3753Z" fill="#A259FF"/>
    </symbol>
    <symbol id="ExpressJS" viewBox="0 0 40 40">
        <path d="M35.625 28.5787C35.1701 28.7511 34.6679 28.7508 34.2132 28.5779C33.7586 28.405 33.3831 28.0715 33.1577 27.6404C31.7416 25.5206 30.1778 23.4964 28.6748 21.4287L28.0231 20.56C26.2334 22.9578 24.4438 25.26 22.8105 27.6492C22.5977 28.0611 22.2425 28.3816 21.811 28.5511C21.3794 28.7205 20.901 28.7273 20.4648 28.5701L27.1805 19.5609L20.9339 11.4203C21.3836 11.2579 21.8755 11.2557 22.3266 11.414C22.7777 11.5723 23.1603 11.8813 23.41 12.289C24.8608 14.409 26.4681 16.4333 28.0666 18.5792C29.6739 16.4506 31.2637 14.4176 32.7494 12.3151C32.9632 11.9098 33.3187 11.5974 33.748 11.4372C34.1773 11.277 34.6506 11.2803 35.0777 11.4464L32.6537 14.6609C31.5678 16.0943 30.4992 17.5365 29.3698 18.9353C29.2788 19.0168 29.206 19.1165 29.1562 19.2281C29.1063 19.3396 29.0806 19.4604 29.0806 19.5826C29.0806 19.7047 29.1063 19.8255 29.1562 19.937C29.206 20.0486 29.2788 20.1483 29.3698 20.2298C31.4462 22.9839 33.5052 25.7465 35.625 28.5787ZM4.375 19.4479C4.5575 18.5792 4.67031 17.6322 4.92234 16.7461C6.42531 11.4031 12.5502 9.17888 16.7638 12.489C19.2311 14.4265 19.848 17.1718 19.7264 20.2647H5.82594C5.6 25.7901 9.58766 29.1262 14.6873 27.4234C15.5146 27.1275 16.2552 26.6302 16.8422 25.9765C17.4292 25.3228 17.8441 24.5331 18.0495 23.6789C18.3189 22.8101 18.7533 22.6625 19.5786 22.9143C19.4426 23.972 19.0687 24.9851 18.4849 25.8774C17.901 26.7697 17.1225 27.5181 16.2078 28.0662C14.6965 28.8928 12.9625 29.2203 11.2539 29.0019C9.54522 28.7834 7.9494 28.0302 6.69469 26.85C5.45336 25.4542 4.70278 23.6906 4.5575 21.8284C4.5575 21.5331 4.44453 21.2376 4.38375 20.9597C4.378 20.4558 4.37509 19.9519 4.375 19.4479ZM5.84328 19.0743H18.4145C18.3362 15.0693 15.8081 12.2284 12.4373 12.2025C8.68422 12.1503 5.99969 14.9303 5.83453 19.057L5.84328 19.0743Z" fill-opacity="0.82"/>
    </symbol>
    <symbol id="Git" viewBox="0 0 40 40">
        <path d="M34.9147 18.6246L21.3808 5.08526C21.1018 4.8058 20.7461 4.61547 20.3589 4.53838C19.9716 4.46129 19.5702 4.50089 19.2055 4.65219C18.9634 4.7527 18.7434 4.89985 18.5581 5.08526L15.7488 7.89564L19.3137 11.4619C20.1429 11.1712 21.0922 11.3698 21.7528 12.0308C22.0673 12.346 22.2869 12.7433 22.3864 13.1773C22.4859 13.6114 22.4614 14.0647 22.3156 14.4855L25.7516 17.9229C26.5829 17.6361 27.5418 17.8211 28.2054 18.4869C28.5378 18.8192 28.7641 19.2428 28.8557 19.7039C28.9474 20.165 28.9002 20.643 28.7201 21.0772C28.4787 21.6595 28.0161 22.122 27.434 22.3631C26.8519 22.6042 26.1978 22.6042 25.6157 22.3631C25.3274 22.2436 25.0655 22.0685 24.8449 21.8477C24.1475 21.1499 23.9751 20.1227 24.3277 19.2631L21.1232 16.0573V24.4934C21.3558 24.6085 21.5684 24.7604 21.7528 24.9431C22.1983 25.3887 22.4486 25.9932 22.4486 26.6235C22.4486 27.2538 22.1983 27.8582 21.7528 28.3039C21.3073 28.7496 20.7031 29 20.073 29C19.443 29 18.8388 28.7496 18.3933 28.3039C18.0608 27.9717 17.8344 27.5482 17.7426 27.0872C17.6508 26.6261 17.6979 26.1482 17.8778 25.7139C17.9973 25.4255 18.1724 25.1636 18.3933 24.9431C18.6228 24.7144 18.8777 24.5409 19.1712 24.4246V15.91C18.8799 15.7909 18.6154 15.6147 18.3933 15.3916C18.0598 15.0583 17.833 14.6332 17.7419 14.1705C17.6508 13.7077 17.6995 13.2283 17.8818 12.7934L14.3655 9.27781L5.08519 18.552C4.80582 18.8313 4.61553 19.1872 4.53842 19.5747C4.46131 19.9622 4.50083 20.3639 4.65199 20.729C4.75251 20.9713 4.89971 21.1915 5.08519 21.3769L18.6201 34.9152C18.8054 35.1006 19.0254 35.2477 19.2675 35.3482C19.7567 35.5506 20.3062 35.5506 20.7954 35.3482C21.0375 35.2477 21.2575 35.1006 21.4428 34.9152L34.9147 21.4593C35.1002 21.2739 35.2474 21.0537 35.3478 20.8113C35.4482 20.569 35.5 20.3092 35.5 20.0469C35.5 19.7845 35.4483 19.5247 35.3479 19.2824C35.2474 19.04 35.1003 18.8198 34.9147 18.6343" fill="#FF5F52"/>
    </symbol>
    <symbol id="Github" viewBox="0 0 40 40">
        <path d="M20.0002 4.76074C11.3717 4.76074 4.375 11.7562 4.375 20.3859C4.375 27.2895 8.85208 33.1464 15.0604 35.2125C15.8413 35.3571 16.128 34.8736 16.128 34.4609C16.128 34.0882 16.1134 32.8575 16.1067 31.5518C11.7599 32.497 10.8426 29.7082 10.8426 29.7082C10.1318 27.9021 9.10772 27.422 9.10772 27.422C7.69005 26.4521 9.21458 26.4721 9.21458 26.4721C10.7836 26.5823 11.6098 28.0823 11.6098 28.0823C13.0034 30.4711 15.2651 29.7804 16.1567 29.3812C16.297 28.3712 16.7019 27.682 17.1488 27.2918C13.6782 26.8967 10.0299 25.5568 10.0299 19.5698C10.0299 17.8639 10.6403 16.47 11.6398 15.3758C11.4776 14.9822 10.9427 13.393 11.7912 11.2408C11.7912 11.2408 13.1033 10.8208 16.0892 12.8424C17.3356 12.4962 18.6722 12.3226 20.0002 12.3166C21.328 12.3226 22.6658 12.4962 23.9144 12.8424C26.8967 10.8208 28.207 11.2408 28.207 11.2408C29.0575 13.393 28.5225 14.9822 28.3602 15.3758C29.362 16.47 29.9683 17.8639 29.9683 19.5698C29.9683 25.5712 26.313 26.8926 22.8336 27.2793C23.3941 27.7643 23.8934 28.7151 23.8934 30.1729C23.8934 32.2636 23.8753 33.9462 23.8753 34.4609C23.8753 34.8767 24.1566 35.3639 24.9486 35.2104C31.1536 33.142 35.625 27.2871 35.625 20.3859C35.625 11.7562 28.6292 4.76074 20.0002 4.76074ZM10.2271 27.019C10.1927 27.0967 10.0706 27.12 9.95931 27.0667C9.84598 27.0157 9.78233 26.9098 9.81908 26.832C9.85272 26.752 9.97509 26.7298 10.0882 26.7834C10.2018 26.8343 10.2665 26.9412 10.2271 27.019ZM10.9957 27.7048C10.9212 27.774 10.7755 27.7418 10.6767 27.6326C10.5745 27.5237 10.5553 27.3781 10.6309 27.3079C10.7077 27.2389 10.849 27.2712 10.9515 27.3801C11.0537 27.4904 11.0736 27.635 10.9957 27.7048ZM11.523 28.5823C11.4272 28.6489 11.2707 28.5865 11.1739 28.4475C11.0782 28.3086 11.0782 28.142 11.176 28.0751C11.273 28.0084 11.4273 28.0684 11.5253 28.2064C11.6208 28.3476 11.6208 28.5143 11.523 28.5823ZM12.4147 29.5986C12.3291 29.6929 12.1467 29.6676 12.0131 29.5387C11.8765 29.4128 11.8385 29.234 11.9244 29.1395C12.0111 29.0448 12.1945 29.0715 12.3291 29.1993C12.4647 29.325 12.506 29.5051 12.4147 29.5986ZM13.5672 29.9415C13.5294 30.064 13.3537 30.1196 13.1768 30.0676C13 30.014 12.8844 29.8707 12.9201 29.747C12.9568 29.6239 13.1333 29.5659 13.3116 29.6215C13.488 29.6748 13.6039 29.8171 13.5672 29.9415ZM14.8788 30.0871C14.8832 30.2159 14.7331 30.3228 14.5473 30.3251C14.3605 30.3293 14.2094 30.225 14.2073 30.0982C14.2073 29.9681 14.354 29.8623 14.5409 29.8592C14.7266 29.8556 14.8788 29.959 14.8788 30.0871ZM16.1672 30.0378C16.1895 30.1634 16.0605 30.2926 15.8759 30.327C15.6945 30.3601 15.5266 30.2825 15.5036 30.1578C15.4811 30.0289 15.6125 29.8998 15.7936 29.8664C15.9784 29.8343 16.1438 29.91 16.1672 30.0378Z"/>
    </symbol>
    <symbol id="Gitlab" viewBox="0 0 40 40">
        <path d="M19.9997 34.3752L25.8688 16.689H14.1313L19.9997 34.3746V34.3752Z" fill="#E24329"/>
        <path d="M19.9998 34.3752L14.1314 16.689H5.90625L19.9998 34.3746V34.3752Z" fill="#FC6D26"/>
        <path d="M5.90637 16.6885L4.1223 22.0635C3.95933 22.5535 4.13699 23.0907 4.56324 23.3936L20 34.3752L5.90637 16.6889V16.6885Z" fill="#FCA326"/>
        <path d="M5.90625 16.6883H14.1314L10.5964 6.03586C10.4145 5.48805 9.62219 5.48805 9.44062 6.03586L5.90625 16.6887V16.6883Z" fill="#E24329"/>
        <path d="M20 34.3752L25.8691 16.689H34.0945L20 34.3746V34.3752Z" fill="#FC6D26"/>
        <path d="M34.0942 16.6885L35.878 22.0635C36.0406 22.5535 35.8623 23.0907 35.4367 23.3936L20 34.3752L34.0942 16.6889V16.6885Z" fill="#FCA326"/>
        <path d="M34.0941 16.6882H25.8691L29.4038 6.03598C29.5859 5.48817 30.378 5.48817 30.5596 6.03598L34.0946 16.6887L34.0941 16.6882Z" fill="#E24329"/>
    </symbol>
    <symbol id="Notion" viewBox="0 0 40 40">
        <path d="M23.9473 5.43909C25.9354 5.26862 26.4465 5.38378 27.6963 6.2926L32.9922 10.027C33.7441 10.5786 34 10.7653 34 11.4117V31.3746C34 32.6255 33.5445 33.366 31.9551 33.4791L13.1572 34.6168C11.9639 34.6735 11.3956 34.503 10.7705 33.7067L6.96582 28.7584C6.28332 27.8476 6.00001 27.1663 6 26.3698V8.62463C6 7.60204 6.45423 6.74837 7.75977 6.63538L23.9473 5.43909ZM31.1582 12.0377L12.7012 13.1178C12.0209 13.175 11.793 13.5167 11.793 14.2565V31.2047C11.7931 32.1152 12.247 32.4554 13.2686 32.399L30.9316 31.3746C31.9529 31.318 32.0673 30.6927 32.0674 29.9528V13.1178C32.0674 12.3789 31.7842 11.9814 31.1582 12.0377ZM29.2285 15.1656C29.3418 15.6775 29.2283 16.189 28.7168 16.2477L27.8652 16.4166V28.9293C27.1261 29.3271 26.4455 29.5543 25.877 29.5543C24.968 29.5543 24.7411 29.2697 24.0605 28.4176L18.4932 19.6588V28.1324L20.2539 28.5319C20.2538 28.5487 20.242 29.5553 18.833 29.5553L14.916 29.7828C14.802 29.5547 14.9165 28.9859 15.3135 28.8727L16.3359 28.5895V17.3854L14.917 17.2701C14.8028 16.7581 15.0862 16.0189 15.8818 15.9615L20.085 15.6783L25.877 24.5504V16.7018L24.4004 16.5319C24.2865 15.9051 24.7411 15.4497 25.3086 15.3942L29.2285 15.1656ZM27.126 7.77209C26.615 7.37428 25.9345 6.91885 24.6279 7.03284L9.06738 8.17053C8.49986 8.22737 8.38616 8.51186 8.61133 8.73987L10.8281 10.5026C11.6997 11.2111 12.0483 11.1879 13.583 11.0846L13.7812 11.0709L29.8516 10.1041C30.1928 10.1041 29.9089 9.76319 29.7949 9.70569L27.126 7.77209Z"/>
    </symbol>
    <symbol id="Trello" viewBox="0 0 40 40">
        <path d="M32.0703 5C33.6934 5 35 6.30664 35 7.92969V32.0703C35 33.6934 33.6934 35 32.0703 35H7.92969C6.30664 35 5 33.6934 5 32.0703V7.92969C5 6.30664 6.30664 5 7.92969 5H32.0703ZM10.3066 8.90039C9.52758 8.90039 8.90039 9.52758 8.90039 10.3066V28.1191C8.90059 28.898 9.5277 29.5254 10.3066 29.5254H16.6436C17.4225 29.5254 18.0496 28.898 18.0498 28.1191V10.3066C18.0498 9.52758 17.4226 8.90039 16.6436 8.90039H10.3066ZM23.3564 8.90039C22.5774 8.90039 21.9502 9.52758 21.9502 10.3066V20.6191C21.9504 21.398 22.5775 22.0254 23.3564 22.0254H29.6934C30.4723 22.0254 31.0994 21.398 31.0996 20.6191V10.3066C31.0996 9.52758 30.4724 8.90039 29.6934 8.90039H23.3564Z" fill="#246DCE"/>
    </symbol>
    <symbol id="MySQL" viewBox="0 0 40 40">
        <path fill-rule="evenodd" clip-rule="evenodd" d="M32.6333 28.3683C31.0017 28.323 29.7358 28.4901 28.675 28.9365C28.3695 29.0591 27.8793 29.0591 27.839 29.4436C28.0023 29.605 28.022 29.869 28.1652 30.0926C28.4097 30.4985 28.8387 31.0451 29.226 31.3288L30.5317 32.2618C31.3273 32.748 32.225 33.0321 33.0002 33.5188C33.4492 33.8028 33.8978 34.1678 34.3468 34.4723C34.5755 34.6345 34.714 34.8986 34.9998 34.9995V34.9381C34.8572 34.7563 34.816 34.4928 34.6738 34.2891L34.061 33.7015C33.4698 32.9108 32.7348 32.2208 31.9392 31.6536C31.2862 31.2075 29.8585 30.5993 29.5932 29.8495L29.553 29.804C30.0012 29.7586 30.5317 29.6008 30.9605 29.4791C31.6547 29.2973 32.2867 29.3373 33.0002 29.155L33.9802 28.871V28.6891C33.6128 28.3243 33.3477 27.8375 32.9603 27.4931C31.92 26.601 30.7767 25.7288 29.5932 24.999C28.9608 24.5936 28.1445 24.3295 27.4713 23.9855C27.2258 23.8636 26.8183 23.8028 26.6757 23.6001C26.3075 23.1548 26.104 22.5661 25.8388 22.0386L24.166 18.5106C23.7988 17.7198 23.5738 16.929 23.1257 16.1991C21.0238 12.752 18.7383 10.6638 15.229 8.61551C14.4745 8.18968 13.5768 8.00653 12.6224 7.78384L11.0923 7.70204C10.7653 7.56024 10.4392 7.17486 10.1534 6.99216C8.99052 6.26229 5.99109 4.68076 5.13366 6.76493C4.58261 8.08288 5.94994 9.38038 6.41409 10.0498C6.76164 10.5161 7.20979 11.0433 7.45537 11.5704C7.59256 11.9149 7.63829 12.2803 7.78142 12.6453C8.10747 13.5374 8.41387 14.5313 8.84236 15.363C9.07101 15.7888 9.31109 16.2355 9.59691 16.6205C9.76016 16.8476 10.046 16.945 10.1068 17.3098C9.82097 17.7156 9.80132 18.3233 9.63806 18.831C8.90317 21.1223 9.18899 23.961 10.2293 25.648C10.5563 26.1546 11.3269 27.2703 12.3723 26.8441C13.2905 26.4791 13.0856 25.3235 13.3509 24.3095C13.4126 24.0665 13.3715 23.9041 13.4936 23.7415V23.787L14.3304 25.4698C14.9629 26.4633 16.065 27.4976 16.9827 28.1875C17.472 28.5525 17.8598 29.1815 18.4717 29.4041V29.3428H18.4315C18.3088 29.161 18.125 29.0791 17.9618 28.9373C17.5947 28.5725 17.1867 28.1261 16.9008 27.7208C16.0443 26.5855 15.2898 25.328 14.6162 24.0305C14.2893 23.402 14.0034 22.7125 13.7391 22.084C13.6157 21.8405 13.6157 21.475 13.4122 21.3541C13.1058 21.7995 12.6576 22.1858 12.4322 22.733C12.0444 23.6046 12.0041 24.6795 11.8615 25.7948C11.7791 25.8151 11.8157 25.7948 11.7791 25.8401C11.127 25.6785 10.902 25.0085 10.6574 24.4413C10.0455 23.0016 9.94307 20.6901 10.4735 19.0273C10.6162 18.6015 11.229 17.2631 10.9844 16.8576C10.8609 16.4723 10.4539 16.2496 10.2289 15.9451C9.96366 15.5598 9.67876 15.0735 9.49492 14.6476C9.00561 13.5115 8.76096 12.2549 8.23004 11.1192C7.98446 10.592 7.55644 10.0443 7.20934 9.55808C6.82156 9.01044 6.39397 8.62506 6.08759 7.97653C5.98561 7.74929 5.84292 7.38846 6.00619 7.14486C6.04642 6.98263 6.12874 6.91763 6.29109 6.88128C6.55632 6.65404 7.31177 6.94218 7.57701 7.06306C8.33156 7.36754 8.96399 7.65114 9.59644 8.07651C9.88226 8.27921 10.1887 8.66459 10.5559 8.76639H10.9848C11.6378 8.90819 12.3718 8.81184 12.9832 8.99363C14.0647 9.33903 15.0438 9.84529 15.9218 10.3934C18.5943 12.0763 20.7985 14.469 22.2873 17.3285C22.532 17.7948 22.634 18.2206 22.859 18.7073C23.288 19.7013 23.8185 20.7148 24.246 21.6886C24.675 22.6416 25.0828 23.6156 25.6948 24.4063C26.0012 24.8321 27.2248 25.0548 27.7755 25.278C28.1838 25.4598 28.8158 25.6235 29.184 25.8461C29.8772 26.272 30.571 26.7586 31.2235 27.225C31.5495 27.4676 32.5703 27.9748 32.631 28.3793L32.6333 28.3683ZM11.8262 10.7479C11.5443 10.7454 11.2633 10.7795 10.9903 10.8492V10.8947H11.0305C11.1938 11.2191 11.4796 11.4423 11.6836 11.7263L12.1532 12.6998L12.1934 12.6543C12.4793 12.4516 12.6224 12.1272 12.6224 11.6409C12.4998 11.4991 12.4797 11.3568 12.3777 11.215C12.2552 11.0124 11.99 10.9106 11.8262 10.7488V10.7479Z"/>
    </symbol>
    <symbol id="Zen" viewBox="0 0 40 40">
        <path d="M20 14C23.3137 14 26 16.6863 26 20C26 23.3137 23.3137 26 20 26C16.6863 26 14 23.3137 14 20C14 16.6863 16.6863 14 20 14ZM20 15.3496C17.4319 15.3497 15.3506 17.4319 15.3506 20C15.3506 22.5681 17.4319 24.6503 20 24.6504C22.5681 24.6504 24.6504 22.5681 24.6504 20C24.6504 17.4319 22.5681 15.3496 20 15.3496Z" fill="#FF6B2C"/>
        <path d="M20 10C25.5228 10 30 14.4772 30 20C30 25.5228 25.5228 30 20 30C14.4772 30 10 25.5228 10 20C10 14.4772 14.4772 10 20 10ZM20 12C15.5817 12 12 15.5817 12 20C12 24.4183 15.5817 28 20 28C24.4183 28 28 24.4183 28 20C28 15.5817 24.4183 12 20 12Z" fill="#FF6B2C"/>
        <path d="M20 5C28.2843 5 35 11.7157 35 20C35 28.2843 28.2843 35 20 35C11.7157 35 5 28.2843 5 20C5 11.7157 11.7157 5 20 5ZM20 8C13.3726 8 8 13.3726 8 20C8 26.6274 13.3726 32 20 32C26.6274 32 32 26.6274 32 20C32 13.3726 26.6274 8 20 8Z" fill="#FF6B2C"/>
    </symbol>
    <symbol id="Arch" viewBox="0 0 40 40">
        <path d="M20 6C18.7538 9.05562 17.997 11.0572 16.6094 14.022C17.4602 14.9238 18.5058 15.9701 20.2016 17.1563C18.3784 16.4059 17.1355 15.6547 16.2061 14.873C14.4302 18.5787 11.6461 23.855 6 34C10.4365 31.4387 13.8758 29.8589 17.0811 29.2558C16.944 28.6648 16.8707 28.0224 16.876 27.3555L16.8794 27.2154C16.9498 24.3722 18.4291 22.1861 20.1811 22.3344C21.9331 22.4829 23.297 24.9088 23.2266 27.752C23.2133 28.2875 23.151 28.8021 23.0454 29.2798C26.2162 29.9003 29.623 31.4731 34 34C33.1368 32.4109 32.3637 30.979 31.628 29.6147C30.469 28.7165 29.2608 27.5478 26.7949 26.2822C28.4898 26.7226 29.7045 27.2318 30.6504 27.7998C23.1696 13.872 22.5653 12.02 20 6Z" fill="#1793D1"/>
    </symbol>
    <symbol id="Hyprland" viewBox="0 0 40 40">
        <path d="M21.377 5.00134C21.4659 5.09535 21.5225 5.1408 21.5618 5.19828C22.2746 6.25119 22.9766 7.31211 23.7001 8.35789C24.1165 8.95987 24.5597 9.54358 25.0042 10.1255C25.434 10.6892 25.8879 11.2341 26.3182 11.7978C26.8158 12.4496 27.3202 13.098 27.7825 13.7744C28.3748 14.641 28.9715 15.5094 29.4839 16.4229C29.9195 17.1995 30.2676 18.0292 30.6006 18.8575C30.8362 19.4439 30.9942 20.0633 31.1629 20.6746C31.241 20.958 31.2629 21.257 31.3084 21.5488C31.3646 21.9062 31.4602 22.2635 31.466 22.6218C31.4816 23.5548 31.5628 24.491 31.3999 25.42C31.2205 26.4444 30.9201 27.4251 30.4734 28.3711C30.0217 29.3269 29.4745 30.2096 28.8046 31.0263C28.1976 31.7664 27.4848 32.3778 26.7141 32.9383C26.1481 33.3496 25.5496 33.6989 24.9127 33.9765C24.3397 34.226 23.7492 34.4261 23.1413 34.5954C21.7689 34.9768 20.3773 35.0606 18.9759 34.9621C18.131 34.9029 17.2763 34.7995 16.4716 34.496C15.8102 34.2465 15.1438 34.0001 14.5114 33.6882C14.012 33.4422 13.5335 33.1339 13.0952 32.7904C12.5204 32.3399 11.9562 31.8631 11.4586 31.3315C11.0127 30.8557 10.6267 30.3125 10.2803 29.7582C9.91525 29.1731 9.59346 28.5547 9.31719 27.9224C9.01861 27.2398 8.8258 26.5211 8.6687 25.785C8.42412 24.6394 8.50312 23.4929 8.5531 22.35C8.58167 21.6936 8.75528 21.0369 8.92176 20.3957C9.09716 19.7193 9.30916 19.0473 9.56623 18.3977C9.82376 17.7471 10.1228 17.1073 10.4651 16.4973C10.8949 15.7318 11.3689 14.989 11.8576 14.2591C12.3012 13.5961 12.7806 12.9563 13.2622 12.32C13.65 11.8076 14.0731 11.3214 14.4659 10.8126C14.8631 10.2979 15.2451 9.77171 15.6294 9.24727C16.036 8.69207 16.4457 8.13911 16.8385 7.57411C17.3366 6.85807 17.8163 6.1291 18.31 5.40993C18.3805 5.307 18.4831 5.22546 18.5706 5.13412C18.588 5.14392 18.6054 5.15373 18.6233 5.16353C18.6269 5.2424 18.6335 5.32126 18.6335 5.40013C18.634 6.57334 18.6402 7.74655 18.626 8.91976C18.6237 9.09176 18.5537 9.28291 18.4599 9.4304C18.0806 10.0297 17.6927 10.6246 17.2826 11.2034C16.8938 11.7519 16.4738 12.2785 16.0677 12.8146C15.733 13.2561 15.3996 13.6982 15.0626 14.1379C14.8287 14.4432 14.5832 14.7395 14.3547 15.0487C14.0352 15.4818 13.7143 15.9154 13.4161 16.3632C13.0564 16.9032 12.7025 17.4486 12.3794 18.0105C12.1482 18.4124 11.9661 18.8433 11.7728 19.2657C11.6657 19.5001 11.5671 19.7398 11.489 19.9848C11.3506 20.4197 11.2399 20.8631 11.1016 21.298C10.7124 22.5197 10.7949 23.7767 10.882 25.0186C10.9262 25.6491 11.1547 26.2729 11.3461 26.8851C11.6144 27.7424 12.0745 28.5026 12.5936 29.2351C12.948 29.7355 13.3501 30.1877 13.8049 30.5879C14.1793 30.9167 14.5859 31.2193 15.013 31.4755C15.4991 31.7669 16.0052 32.0445 16.5359 32.2361C17.1022 32.4406 17.7008 32.5921 18.2979 32.6674C19.0089 32.7569 19.7333 32.7378 20.4514 32.7716C21.1182 32.8028 21.7649 32.6696 22.412 32.5426C23.2337 32.3813 23.9844 32.0275 24.7141 31.6399C25.5867 31.1765 26.32 30.5201 26.9622 29.7805C27.6187 29.0243 28.1699 28.1742 28.5207 27.2407C28.8907 26.2559 29.1991 25.2369 29.1523 24.1546C29.1268 23.5695 29.159 22.9809 29.105 22.3994C29.0652 21.9712 28.9434 21.5479 28.83 21.1295C28.697 20.6381 28.5609 20.1448 28.3766 19.6712C28.1931 19.1993 27.9588 18.7466 27.7285 18.2943C27.5246 17.8937 27.3126 17.4958 27.0742 17.1153C26.7841 16.6524 26.4771 16.1979 26.1513 15.7594C25.6581 15.0955 25.1363 14.453 24.6378 13.7935C24.054 13.0213 23.4716 12.2482 22.9074 11.4618C22.4205 10.7836 21.9564 10.089 21.4922 9.39475C21.4177 9.28336 21.3583 9.13676 21.357 9.00621C21.3467 7.73675 21.3503 6.46729 21.3512 5.19784C21.3512 5.15551 21.3619 5.11273 21.377 5V5.00134Z" fill="url(#paint0_linear_311_3924)"/>
        <defs>
        <linearGradient id="paint0_linear_311_3924" x1="8.8981" y1="30.5054" x2="34.025" y2="9.50912" gradientUnits="userSpaceOnUse">
        <stop stop-color="#00A2F8"/>
        <stop offset="1" stop-color="#00E5CF"/>
        </linearGradient>
        </defs>
    </symbol>
    <symbol id="Svelte" viewBox="0 0 40 40">
        <path d="M18.6172 6.32516C22.5926 3.80879 28.1228 4.9781 30.9005 8.96871C32.2511 10.8242 32.7858 13.1626 32.3526 15.4502C32.1742 16.5176 31.7668 17.5341 31.1553 18.4492C32.0472 20.1013 32.3274 22.0079 31.9962 23.8632C31.6139 26.0747 30.2883 28.0318 28.377 29.2265L21.3692 33.6748C17.3937 36.1909 11.8891 35.0219 9.086 31.0312C7.76099 29.1758 7.22614 26.8372 7.63385 24.5752C7.81224 23.5076 8.22051 22.4911 8.83209 21.5761C7.94022 19.9239 7.65909 18.0176 7.99029 16.1621C8.37256 13.9507 9.69817 11.9934 11.6094 10.7988L18.6172 6.32516ZM28.0206 10.7988C26.6953 8.89252 24.3256 8.00241 22.0577 8.58688C21.548 8.73939 21.0631 8.94302 20.6299 9.22262L13.6221 13.6709C12.4755 14.3826 11.6601 15.5778 11.4307 16.8994C11.176 18.2717 11.507 19.6698 12.2969 20.788C13.6221 22.6943 15.9928 23.5835 18.2608 22.999C18.7703 22.8719 19.2545 22.6691 19.6876 22.3896L22.3633 20.6865C22.4907 20.6103 22.6433 20.5595 22.796 20.5088C23.484 20.3308 24.1977 20.5844 24.6055 21.1689C24.8349 21.4993 24.9369 21.9321 24.8604 22.3388C24.784 22.7452 24.5548 23.0752 24.1983 23.3037L17.2159 27.7519C17.0884 27.8282 16.9353 27.8798 16.7823 27.9306C16.0944 28.1085 15.3805 27.8286 14.9727 27.2441C14.7689 26.9391 14.6671 26.5579 14.6924 26.2021L14.7178 25.9472L14.463 25.8711C13.4693 25.5661 12.5518 25.1089 11.711 24.499L11.3546 24.2451L11.2266 24.6513C11.1757 24.8801 11.1252 25.0837 11.0743 25.3125C10.845 26.6851 11.1505 28.0828 11.9659 29.2011C13.291 31.1075 15.6609 31.9966 17.9288 31.4121C18.4385 31.2596 18.9233 31.0569 19.3565 30.7773L26.3643 26.3291C27.5111 25.6174 28.3264 24.4222 28.5557 23.1005C28.785 21.7282 28.4794 20.3302 27.6641 19.2119C26.339 17.3055 23.9682 16.4162 21.7003 17.0009C21.1908 17.1534 20.7065 17.3562 20.2735 17.6357L17.5977 19.3388C17.4704 19.4149 17.3178 19.4658 17.1651 19.5166C16.4771 19.6943 15.7634 19.4407 15.3555 18.8564C15.1262 18.526 15.0242 18.0931 15.1006 17.6865C15.1772 17.28 15.4061 16.9494 15.7628 16.7207L22.7452 12.2724C22.8726 12.1962 23.0257 12.1455 23.1788 12.0947C23.8667 11.9168 24.5806 12.1712 24.9883 12.7558C25.1921 13.0608 25.2941 13.4421 25.2686 13.7978L25.2432 14.0517L25.4981 14.1279C26.4919 14.4329 27.4093 14.8909 28.2501 15.5009L28.6065 15.7548L28.7344 15.3486C28.8108 15.1198 28.8611 14.9162 28.9122 14.6875C29.1414 13.3149 28.8359 11.9172 28.0206 10.7988Z" fill="#FF3E00"/>
    </symbol>
    <symbol id="pnpm" viewBox="0 0 40 40">
        <path d="M14.9219 6.32812H6.32812V14.9219H14.9219V6.32812Z" fill="#F9AD00"/>
        <path d="M24.2969 6.32812H15.7031V14.9219H24.2969V6.32812Z" fill="#F9AD00"/>
        <path d="M33.6719 6.32812H25.0781V14.9219H33.6719V6.32812Z" fill="#F9AD00"/>
        <path d="M33.6719 15.7031H25.0781V24.2969H33.6719V15.7031Z" fill="#F9AD00"/>
        <path d="M33.6719 25.0781H25.0781V33.6719H33.6719V25.0781Z" fill="#4E4E4E"/>
        <path d="M24.2969 25.0781H15.7031V33.6719H24.2969V25.0781Z" fill="#4E4E4E"/>
        <path d="M14.9219 25.0781H6.32812V33.6719H14.9219V25.0781Z" fill="#4E4E4E"/>
        <path d="M24.2969 15.7031H15.7031V24.2969H24.2969V15.7031Z" fill="#4E4E4E"/>
    </symbol>
    <symbol id="Vite" viewBox="0 0 40 40">
        <path d="M35.502 9.00028L20.8408 35.2171C20.538 35.7585 19.7603 35.7616 19.4531 35.223L4.50114 9.00279C4.16641 8.41581 4.66835 7.70479 5.33353 7.8237L20.0105 10.4471C20.1041 10.4638 20.2 10.4637 20.2936 10.4466L34.6636 7.82745C35.3266 7.70662 35.8308 8.41212 35.502 9.00028Z" fill="url(#paint0_linear_326_4069)"/>
        <path d="M27.0021 4.38269L16.1524 6.50866C15.9739 6.5436 15.8419 6.69472 15.8313 6.8761L15.1638 18.1481C15.1481 18.4136 15.3919 18.6197 15.651 18.5598L18.6718 17.8628C18.9544 17.7977 19.2097 18.0466 19.1518 18.3308L18.2543 22.7255C18.1938 23.0213 18.4716 23.2741 18.7604 23.1864L20.6261 22.6195C20.9154 22.5317 21.1933 22.7853 21.1321 23.0814L19.7058 29.9844C19.6166 30.4163 20.191 30.6517 20.4305 30.2814L20.5905 30.0342L29.4314 12.3905C29.5796 12.0951 29.3243 11.7582 28.9997 11.8208L25.8905 12.4209C25.5983 12.4773 25.3497 12.2052 25.4321 11.9193L27.4616 4.8841C27.5441 4.59774 27.2946 4.32539 27.0021 4.38269Z" fill="url(#paint1_linear_326_4069)"/>
        <defs>
        <linearGradient id="paint0_linear_326_4069" x1="4.13608" y1="6.88674" x2="22.3831" y2="31.6677" gradientUnits="userSpaceOnUse">
        <stop stop-color="#41D1FF"/>
        <stop offset="1" stop-color="#BD34FE"/>
        </linearGradient>
        <linearGradient id="paint1_linear_326_4069" x1="19.1683" y1="4.95989" x2="22.4691" y2="27.6031" gradientUnits="userSpaceOnUse">
        <stop stop-color="#FFEA83"/>
        <stop offset="0.0833333" stop-color="#FFDD35"/>
        <stop offset="1" stop-color="#FFA800"/>
        </linearGradient>
        </defs>
    </symbol>
    <symbol id="TypeScript" viewBox="0 0 40 40">
        <path d="M8.84571 20.1326L8.83301 21.7708H11.4362H14.0394V29.1676V36.5644H15.8807H17.7219V29.1676V21.7708H20.3251H22.9282V20.1644C22.9282 19.2755 22.9093 18.5326 22.8838 18.5136C22.8647 18.4883 19.6965 18.4755 15.8552 18.4819L8.86476 18.5009L8.84571 20.1326Z" fill="#0094F7"/>
        <path d="M32.276 18.4544C33.2918 18.7085 34.0665 19.1593 34.7775 19.8957C35.1458 20.2894 35.6918 21.0069 35.7363 21.1783C35.749 21.2291 34.0093 22.3974 32.9554 23.0513C32.9172 23.0768 32.7647 22.9116 32.5933 22.6577C32.0791 21.9085 31.5394 21.5846 30.714 21.5275C29.5013 21.4449 28.7204 22.0799 28.7268 23.1402C28.7268 23.4513 28.7711 23.6354 28.8982 23.8894C29.1647 24.4418 29.66 24.7719 31.2157 25.4449C34.0791 26.6768 35.3044 27.4894 36.0665 28.6449C36.9172 29.9338 37.1077 31.991 36.5299 33.5211C35.895 35.1846 34.3204 36.3147 32.1044 36.6894C31.4188 36.81 29.7933 36.791 29.0569 36.6577C27.4505 36.3719 25.9268 35.5783 24.9871 34.5371C24.6188 34.1307 23.9013 33.0704 23.9458 32.9941C23.9647 32.9688 24.1299 32.8672 24.314 32.7593C24.4918 32.6577 25.1649 32.2704 25.7997 31.9021L26.949 31.2354L27.1902 31.591C27.5268 32.1052 28.2632 32.81 28.7077 33.0449C29.9838 33.718 31.7363 33.6227 32.5997 32.8482C32.968 32.5116 33.1204 32.1624 33.1204 31.6482C33.1204 31.1846 33.0632 30.9814 32.8219 30.6322C32.5108 30.1879 31.876 29.8132 30.0727 29.0322C28.0093 28.1433 27.1204 27.591 26.3077 26.7147C25.8379 26.2069 25.3933 25.3941 25.2093 24.7147C25.0569 24.1497 25.0188 22.7338 25.1394 22.1624C25.5647 20.1688 27.0696 18.7783 29.241 18.3655C29.9458 18.2322 31.5838 18.283 32.276 18.4544Z" fill="#0094F7"/>
    </symbol>
    <symbol id="Vercel" viewBox="0 0 40 40">
        <path d="M20 7.12085L34.8438 32.8791H5.15625L20 7.12085Z"/>
    </symbol>
    <symbol id="NodeJS" viewBox="0 0 40 40">
        <path d="M18.7309 4.8341C19.4995 4.39417 20.5005 4.39221 21.2683 4.8341C25.1311 7.01678 28.9952 9.1961 32.8573 11.3801C33.5839 11.7893 34.0697 12.5978 34.0623 13.4348V26.5669C34.0678 27.4386 33.5339 28.2664 32.7675 28.6662C28.9173 30.837 25.0691 33.0103 21.2195 35.1811C20.4353 35.6295 19.4142 35.595 18.6542 35.1097C17.5 34.4406 16.3438 33.7747 15.1894 33.1062C14.9535 32.9656 14.6876 32.8537 14.521 32.625C14.6682 32.4265 14.9315 32.4019 15.1455 32.3151C15.6272 32.1619 16.0698 31.9159 16.5123 31.6773C16.6244 31.6008 16.7609 31.6301 16.8683 31.6986C17.8553 32.2645 18.8338 32.847 19.8241 33.4075C20.0353 33.5295 20.2492 33.3675 20.4298 33.2669C24.208 31.1314 27.9908 29.0042 31.7684 26.8681C31.9084 26.8008 31.9858 26.6522 31.9744 26.4989C31.977 22.1669 31.975 17.8342 31.9758 13.5021C31.9917 13.3282 31.8911 13.1683 31.7338 13.097C27.897 10.9363 24.062 8.77224 20.2259 6.61095C20.0898 6.51737 19.9103 6.51714 19.7741 6.61024C15.9378 8.77224 12.1037 10.9383 8.26756 13.0989C8.11081 13.1702 8.00563 13.3276 8.02428 13.5021C8.02494 17.8342 8.02428 22.1669 8.02428 26.4995C8.01066 26.6528 8.09391 26.7983 8.23291 26.8642C9.2566 27.4447 10.2816 28.0211 11.306 28.5997C11.8831 28.9101 12.5916 29.0948 13.2274 28.8569C13.7885 28.6556 14.1818 28.0829 14.1711 27.4873C14.1764 23.1806 14.1684 18.8733 14.175 14.5671C14.1611 14.3759 14.3424 14.218 14.5283 14.236C15.0202 14.2326 15.5127 14.2294 16.0045 14.2373C16.2098 14.2326 16.3511 14.4385 16.3258 14.6311C16.3238 18.9651 16.3311 23.2992 16.3225 27.6331C16.3238 28.7883 15.8492 30.0451 14.7808 30.6103C13.4646 31.292 11.8378 31.1475 10.5375 30.4937C9.4118 29.9319 8.33755 29.2687 7.23184 28.6669C6.46345 28.2692 5.93219 27.4381 5.9376 26.567V13.4348C5.92953 12.5804 6.43477 11.7573 7.18381 11.3541C11.0333 9.18167 14.8822 7.00749 18.7309 4.8341Z" fill="#81CD39"/>
        <path d="M22.0892 13.9308C23.7681 13.8227 25.5654 13.8668 27.0762 14.6938C28.2461 15.3277 28.8945 16.6579 28.9151 17.9575C28.8825 18.1326 28.6992 18.2293 28.5318 18.2173C28.0448 18.2167 27.5575 18.224 27.0704 18.214C26.8637 18.222 26.7437 18.0315 26.7178 17.8489C26.5778 17.227 26.2386 16.6112 25.6534 16.3112C24.755 15.8615 23.7134 15.8842 22.7337 15.8936C22.0186 15.9314 21.2495 15.9934 20.6436 16.4139C20.1784 16.7325 20.0371 17.3756 20.2031 17.8936C20.3596 18.2654 20.7889 18.3854 21.1403 18.4961C23.1636 19.0253 25.3076 18.9725 27.2923 19.6689C28.114 19.9528 28.9178 20.5048 29.199 21.3651C29.567 22.5182 29.4057 23.8964 28.5853 24.822C27.92 25.5837 26.9511 25.9984 25.9846 26.2236C24.699 26.5103 23.3648 26.5176 22.0592 26.3903C20.8315 26.2503 19.5539 25.9278 18.6062 25.0914C17.7957 24.3876 17.4 23.291 17.4392 22.2329C17.4486 22.0542 17.6265 21.9295 17.7978 21.9442C18.2882 21.9403 18.7789 21.9389 19.2693 21.945C19.4654 21.9309 19.6106 22.1003 19.6207 22.285C19.7111 22.8773 19.9337 23.4992 20.4504 23.8503C21.4473 24.4936 22.6984 24.4495 23.84 24.4675C24.7857 24.4256 25.8475 24.4129 26.6192 23.7878C27.0264 23.4312 27.147 22.8346 27.037 22.3215C26.9178 21.8882 26.4645 21.6864 26.0753 21.5543C24.0779 20.9226 21.9098 21.1518 19.9318 20.4373C19.1287 20.1536 18.3521 19.617 18.0437 18.792C17.6132 17.6243 17.8104 16.18 18.7168 15.2856C19.6006 14.3959 20.8762 14.0533 22.0892 13.9308Z" fill="#81CD39"/>
    </symbol>
    <symbol id="Obsidian" viewBox="0 0 40 40">
        <path d="M27.7074 33.3913C27.5182 34.8196 26.1205 35.9304 24.7351 35.5458C22.7574 35.0027 20.4687 34.1543 18.4118 33.9955L15.2562 33.7514C14.7473 33.716 14.2693 33.4944 13.9135 33.1289L8.48134 27.5319C8.18995 27.2338 7.99509 26.8549 7.92215 26.4444C7.84921 26.0341 7.90157 25.6111 8.0724 25.231C8.0724 25.231 11.4293 17.8457 11.5575 17.4611C11.6796 17.0766 12.1434 13.7258 12.412 11.9314C12.4852 11.4492 12.7172 11.0158 13.0834 10.6924L19.5104 4.90623C19.7222 4.71587 19.971 4.57104 20.2412 4.48071C20.5113 4.39038 20.7972 4.35646 21.081 4.38107C21.3647 4.40566 21.6405 4.48826 21.891 4.62374C22.1416 4.75921 22.3618 4.9447 22.5377 5.16868L27.9332 12.029C28.2333 12.4217 28.3963 12.902 28.3971 13.3962C28.3971 14.6963 28.5069 17.3635 29.2272 19.0847C29.9291 20.751 31.2108 22.5636 31.8822 23.4486C32.0101 23.6143 32.0857 23.8139 32.0999 24.0225C32.114 24.2313 32.0658 24.4394 31.9616 24.6205C31.0905 26.0822 30.1787 27.5191 29.2272 28.9297C28.3116 30.2908 27.8905 31.9754 27.7013 33.3913H27.7074Z" fill="#6C31E3"/>
        <path d="M14.4994 33.5562C17.0263 28.4291 16.953 24.7549 15.8788 22.1426C14.89 19.7255 13.0528 18.2059 11.6063 17.2598C11.5697 17.4002 11.527 17.5284 11.472 17.6565L8.07238 25.2371C7.90077 25.6168 7.84743 26.0393 7.91927 26.4496C7.99112 26.8601 8.18483 27.2393 8.47521 27.538L13.9134 33.1351C14.0822 33.3107 14.2805 33.4554 14.4994 33.5623V33.5562Z" fill="url(#paint0_radial_326_4108)"/>
        <path d="M21.3661 23.1496C22.0497 23.2229 22.7211 23.3694 23.3681 23.6135C25.4433 24.3887 27.3353 26.1282 28.8917 29.4912C29.0015 29.3019 29.1114 29.1127 29.2336 28.9298C30.1839 27.5183 31.0958 26.0815 31.968 24.6205C32.0747 24.4401 32.1242 24.2316 32.11 24.0224C32.0958 23.8132 32.0186 23.6132 31.8886 23.4487C31.2172 22.5576 29.9355 20.751 29.2336 19.0848C28.5133 17.3635 28.4095 14.6902 28.4034 13.3962C28.4034 12.9018 28.2448 12.4197 27.9395 12.0291L22.5379 5.16869C22.5086 5.1331 22.4781 5.0985 22.4464 5.06494C22.8019 6.12922 22.8442 7.27318 22.5684 8.36083C22.307 9.23904 21.9465 10.0847 21.4942 10.8816L21.0548 11.7483C20.3503 13.0897 19.9462 14.5685 19.8708 16.0818C19.7975 17.8762 20.1637 20.1344 21.3661 23.1496Z" fill="url(#paint1_radial_326_4108)"/>
        <path d="M21.3657 23.1496C20.1634 20.1344 19.791 17.8761 19.8704 16.0757C19.9459 14.5623 20.3499 13.0836 21.0545 11.7422C21.1948 11.4492 21.3474 11.1623 21.4938 10.8816C21.9273 10.0332 22.3484 9.23361 22.5681 8.3547C22.8438 7.26705 22.8015 6.12308 22.446 5.05879C22.0757 4.65073 21.5588 4.40615 21.0084 4.37869C20.4581 4.35123 19.9193 4.54314 19.5103 4.91231L13.0771 10.6985C12.7183 11.0217 12.4831 11.4598 12.4119 11.9375L11.6306 17.1255L11.6001 17.2658C13.0527 18.2119 14.896 19.7316 15.8787 22.1486C16.0818 22.6382 16.241 23.1447 16.3548 23.6624C18.0637 23.2472 19.7545 22.991 21.3657 23.1557V23.1496Z" fill="url(#paint2_radial_326_4108)"/>
        <path d="M24.7352 35.5519C26.1207 35.9303 27.5183 34.8196 27.7075 33.3913C27.865 32.0308 28.2661 30.7097 28.8916 29.4911C27.3291 26.1342 25.4432 24.3886 23.3741 23.6135C21.1767 22.7957 18.7842 23.0642 16.355 23.6563C16.8982 26.1221 16.5747 29.3508 14.4995 33.5561C14.7437 33.666 14.9939 33.7392 15.2624 33.7575C15.2624 33.7575 16.7517 33.8796 18.5339 34.0078C20.3039 34.1299 22.9528 35.0514 24.7352 35.5458V35.5519Z" fill="url(#paint3_radial_326_4108)"/>
        <path fill-rule="evenodd" clip-rule="evenodd" d="M19.8827 15.9598C19.8033 17.7419 20.0291 19.7927 21.2316 22.8018L20.8531 22.7712C19.7728 19.6279 19.5408 18.0105 19.6202 16.2038C19.713 14.6663 20.1377 13.167 20.8653 11.8093C21.0117 11.5103 21.3536 10.9487 21.5063 10.6619C21.9395 9.82568 22.2325 9.38013 22.4828 8.61108C22.8306 7.54297 22.7574 7.03027 22.7147 6.52979C22.9955 8.35474 21.9395 9.94775 21.1461 11.5591C20.4164 12.9171 19.9856 14.4154 19.8827 15.9537V15.9598Z" fill="url(#paint4_radial_326_4108)"/>
        <path fill-rule="evenodd" clip-rule="evenodd" d="M16.2328 22.2707C16.3794 22.6004 16.5136 22.8688 16.5991 23.2779L16.2756 23.3449C16.1475 22.869 16.0436 22.5271 15.8606 22.1243C14.7742 19.5609 13.0347 18.2424 11.6064 17.272C13.3276 18.1998 15.0976 19.6524 16.2267 22.2707H16.2328Z" fill="url(#paint5_radial_326_4108)"/>
        <path fill-rule="evenodd" clip-rule="evenodd" d="M16.6171 23.5952C17.2154 26.4029 16.544 29.9551 14.5664 33.4157C16.2204 29.9855 17.0201 26.6958 16.3548 23.6501L16.6171 23.5952Z" fill="url(#paint6_radial_326_4108)"/>
        <path fill-rule="evenodd" clip-rule="evenodd" d="M23.447 23.3449C26.6879 24.5595 27.9392 27.2267 28.8731 29.4485C27.7134 27.123 26.1143 24.5474 23.331 23.5891C21.207 22.8688 19.4187 22.9542 16.3548 23.65L16.2876 23.3449C19.5346 22.6064 21.2315 22.521 23.447 23.3449Z" fill="url(#paint7_radial_326_4108)"/>
        <defs>
        <radialGradient id="paint0_radial_326_4108" cx="0" cy="0" r="1" gradientUnits="userSpaceOnUse" gradientTransform="translate(14.2247 33.0496) rotate(-104.693) scale(14.1972 9.45964)">
        <stop stop-color="white" stop-opacity="0.4"/>
        <stop offset="1" stop-opacity="0.1"/>
        </radialGradient>
        <radialGradient id="paint1_radial_326_4108" cx="0" cy="0" r="1" gradientUnits="userSpaceOnUse" gradientTransform="translate(26.3465 27.2024) rotate(-82.4846) scale(23.3328 17.2384)">
        <stop stop-color="white" stop-opacity="0.6"/>
        <stop offset="1" stop-color="white" stop-opacity="0.1"/>
        </radialGradient>
        <radialGradient id="paint2_radial_326_4108" cx="0" cy="0" r="1" gradientUnits="userSpaceOnUse" gradientTransform="translate(15.0791 23.1008) rotate(-77.7949) scale(19.9205 13.6114)">
        <stop stop-color="white" stop-opacity="0.8"/>
        <stop offset="1" stop-color="white" stop-opacity="0.4"/>
        </radialGradient>
        <radialGradient id="paint3_radial_326_4108" cx="0" cy="0" r="1" gradientUnits="userSpaceOnUse" gradientTransform="translate(24.8389 35.6252) rotate(-120.496) scale(11.546 13.2728)">
        <stop stop-color="white" stop-opacity="0.3"/>
        <stop offset="1" stop-opacity="0.3"/>
        </radialGradient>
        <radialGradient id="paint4_radial_326_4108" cx="0" cy="0" r="1" gradientUnits="userSpaceOnUse" gradientTransform="translate(23.2945 12.1877) rotate(102.236) scale(10.3674 6.99111)">
        <stop stop-color="white" stop-opacity="0"/>
        <stop offset="1" stop-color="white" stop-opacity="0.2"/>
        </radialGradient>
        <radialGradient id="paint5_radial_326_4108" cx="0" cy="0" r="1" gradientUnits="userSpaceOnUse" gradientTransform="translate(11.1487 17.8031) rotate(45.3237) scale(7.63916 16.2712)">
        <stop stop-color="white" stop-opacity="0.2"/>
        <stop offset="1" stop-color="white" stop-opacity="0.4"/>
        </radialGradient>
        <radialGradient id="paint6_radial_326_4108" cx="0" cy="0" r="1" gradientUnits="userSpaceOnUse" gradientTransform="translate(17.496 21.6969) rotate(86.0397) scale(7.95356 16.8898)">
        <stop stop-color="white" stop-opacity="0.2"/>
        <stop offset="1" stop-color="white" stop-opacity="0.3"/>
        </radialGradient>
        <radialGradient id="paint7_radial_326_4108" cx="0" cy="0" r="1" gradientUnits="userSpaceOnUse" gradientTransform="translate(28.7876 28.7283) rotate(-152.289) scale(13.6506 42.9445)">
        <stop stop-color="white" stop-opacity="0.2"/>
        <stop offset="0.5" stop-color="white" stop-opacity="0.2"/>
        <stop offset="1" stop-color="white" stop-opacity="0.3"/>
        </radialGradient>
        </defs>
    </symbol>
    <symbol id="VScode" viewBox="0 0 40 40">
        <path d="M5.10293 15.4544C5.10293 15.4544 4.36318 14.9211 5.25088 14.2091L7.31912 12.3597C7.31912 12.3597 7.91091 11.7371 8.53663 12.2796L27.6223 26.7294V33.6585C27.6223 33.6585 27.6131 34.7466 26.2167 34.6263L5.10293 15.4544Z" fill="#2489CA"/>
        <path d="M10.0225 19.9207L5.10308 24.393C5.10308 24.393 4.59758 24.7691 5.10308 25.4411L7.38709 27.5185C7.38709 27.5185 7.92957 28.1011 8.73096 27.4383L13.9462 23.4838L10.0225 19.9207Z" fill="#1070B3"/>
        <path d="M18.6591 19.9577L27.6811 13.0686L27.6225 6.17657C27.6225 6.17657 27.2372 4.6724 25.9519 5.45531L13.9463 16.382L18.6591 19.9577Z" fill="#0877B9"/>
        <path d="M26.2167 34.6356C26.7407 35.1718 27.3757 34.9962 27.3757 34.9962L34.4065 31.5317C35.3065 30.9182 35.1801 30.157 35.1801 30.157V9.46843C35.1801 8.55915 34.2492 8.24476 34.2492 8.24476L28.1556 5.30731C26.824 4.48434 25.9517 5.45526 25.9517 5.45526C25.9517 5.45526 27.0735 4.6477 27.6223 6.17652V33.532C27.6223 33.7201 27.5821 33.905 27.5021 34.0715C27.3418 34.3951 26.9935 34.6971 26.1582 34.5707L26.2167 34.6356Z" fill="#3C99D4"/>
    </symbol>
    <symbol id="CSS" viewBox="0 0 40 40">
        <path d="M26.1435 21.4625L25.5641 27.9353L19.9977 29.4378L14.43 27.9413L14.08 23.9613H9.07L9.77 31.7946L19.9977 34.6302L30.2294 31.7946L30.3044 30.9513L31.4772 17.8119L31.5989 16.4716L32.5 6.36987H7.5L7.94922 11.3609H27.0303L26.5763 16.4716H8.39857L8.84779 21.4625H26.1435Z" fill="#42A5F5"/>
    </symbol>
    <symbol id="HTML" viewBox="0 0 40 40">
        <path d="M7.5 6.36816L8.84528 21.4608H26.1438L25.5633 27.9343L19.9936 29.4402L14.4344 27.9364L14.0627 23.7799H9.05295L9.76931 31.7925L19.9923 34.6319L30.2283 31.7925L31.6006 16.4705H13.41L12.9533 11.3595H32.0377H32.053L32.5 6.36816H7.5Z" fill="#F16524"/>
    </symbol>
    <symbol id="MaterialUI" viewBox="0 0 40 40">
        <path fill-rule="evenodd" clip-rule="evenodd" d="M30.0444 24.6297C30.1681 24.5587 30.2711 24.4563 30.3428 24.3329C30.4146 24.2094 30.4525 24.0693 30.453 23.9266L30.4677 19.2171C30.468 19.0744 30.5061 18.9343 30.5778 18.8108C30.6494 18.6874 30.7524 18.5851 30.8761 18.514L33.4291 17.0476C33.5528 16.9765 33.693 16.9393 33.8356 16.9394C33.9783 16.9397 34.1185 16.9774 34.2419 17.049C34.3655 17.1204 34.468 17.223 34.5392 17.3466C34.6105 17.4702 34.6481 17.6104 34.6481 17.7532V26.3151C34.6481 26.4583 34.6103 26.5988 34.5386 26.7227C34.4669 26.8466 34.3638 26.9494 34.2396 27.0207L24.605 32.5546C24.4819 32.6252 24.3425 32.6624 24.2006 32.6626C24.0588 32.6627 23.9192 32.6257 23.7961 32.5554L16.235 28.2308C16.1105 28.1596 16.0069 28.0569 15.9349 27.9329C15.8628 27.8088 15.8249 27.6679 15.8249 27.5244V23.2072C15.8249 23.2024 15.8306 23.1991 15.8355 23.2015C15.8396 23.204 15.8452 23.2015 15.8452 23.1958V23.191C15.8452 23.1877 15.8469 23.1844 15.8502 23.1829L22.0774 19.6054C22.083 19.6021 22.0805 19.5932 22.0741 19.5932C22.0724 19.5932 22.0706 19.5924 22.0694 19.5912C22.0683 19.5901 22.0675 19.5883 22.0675 19.5866L22.0797 15.354C22.0803 15.2109 22.0431 15.0702 21.9719 14.946C21.9008 14.8218 21.798 14.7186 21.6742 14.6468C21.5505 14.575 21.4099 14.5371 21.2667 14.537C21.1236 14.5368 20.983 14.5745 20.8591 14.646L16.231 17.3129C16.1074 17.384 15.9674 17.4215 15.8249 17.4215C15.6824 17.4215 15.5423 17.384 15.4188 17.3129L10.776 14.6395C10.6523 14.5683 10.5121 14.5308 10.3694 14.531C10.2266 14.531 10.0864 14.5687 9.96286 14.6401C9.83927 14.7115 9.73663 14.8141 9.66526 14.9377C9.59386 15.0613 9.55624 15.2015 9.55616 15.3443V22.994C9.55625 23.1366 9.51888 23.2766 9.4478 23.4002C9.37671 23.5238 9.27441 23.6266 9.15111 23.6982C9.02783 23.7699 8.88788 23.8079 8.7453 23.8083C8.60272 23.8088 8.46251 23.7719 8.33871 23.7012L5.76221 22.2282C5.63741 22.1569 5.53372 22.0538 5.46168 21.9294C5.38963 21.8052 5.35182 21.664 5.35205 21.5202L5.37483 8.14943C5.37515 8.00689 5.4129 7.86694 5.4843 7.74356C5.55569 7.62019 5.65825 7.51773 5.78169 7.44647C5.90513 7.37519 6.04513 7.33758 6.18768 7.3374C6.33022 7.33723 6.4703 7.37451 6.59391 7.4455L15.4196 12.5147C15.5429 12.5855 15.6827 12.6228 15.8249 12.6228C15.9671 12.6228 16.1069 12.5855 16.2302 12.5147L25.0535 7.4455C25.1772 7.3744 25.3175 7.33712 25.4602 7.3374C25.603 7.33769 25.7431 7.3755 25.8667 7.44708C25.9902 7.51864 26.0927 7.62144 26.1639 7.74515C26.2352 7.86886 26.2725 8.00912 26.2725 8.15187V21.5258C26.2725 21.669 26.2349 21.8096 26.1633 21.9333C26.0917 22.0572 25.9888 22.1601 25.8647 22.2315L21.2439 24.8926C21.1199 24.9641 21.0169 25.0672 20.9453 25.1913C20.8738 25.3154 20.8363 25.4563 20.8366 25.5996C20.8369 25.7427 20.875 25.8833 20.9472 26.0072C21.0192 26.131 21.1228 26.2335 21.2472 26.3046L23.7961 27.7555C23.9192 27.8257 24.0586 27.8624 24.2003 27.8621C24.3421 27.8618 24.4813 27.8246 24.6042 27.754L30.0444 24.6297ZM30.5791 12.6327C30.5792 12.7766 30.6175 12.9179 30.69 13.0422C30.7625 13.1665 30.8667 13.2693 30.9921 13.3402C31.1172 13.4111 31.2591 13.4475 31.403 13.4458C31.5469 13.444 31.6877 13.4041 31.8113 13.3301L34.2527 11.8652C34.3731 11.793 34.4728 11.6908 34.5422 11.5686C34.6116 11.4464 34.648 11.3083 34.6481 11.1678V8.18279C34.6478 8.03895 34.6094 7.89775 34.5369 7.77356C34.4642 7.64937 34.36 7.54664 34.2349 7.47584C34.1096 7.40504 33.9678 7.3687 33.8241 7.37051C33.6802 7.37234 33.5394 7.41225 33.416 7.48619L30.9746 8.95103C30.8541 9.02325 30.7542 9.12544 30.685 9.24765C30.6156 9.36987 30.5792 9.50795 30.5791 9.64847V12.6335V12.6327Z" fill="#007FFF"/>
    </symbol>
    <symbol id="Antd" viewBox="0 0 40 40">
        <path d="M18.7602 5.98611L5.98391 18.7598C5.29703 19.4466 5.29703 20.5558 5.98391 21.2425L18.7602 34.0162C19.447 34.703 20.5566 34.703 21.2434 34.0162L26.6003 28.6603C27.2155 28.0453 27.2155 27.0481 26.6003 26.4331C25.9852 25.8181 24.9878 25.8181 24.3727 26.4331L20.3116 30.4934C20.1406 30.6644 19.8812 30.6644 19.7102 30.4934L9.50744 20.2927C9.33647 20.1217 9.33647 19.8623 9.50744 19.6914L19.7102 9.49067C19.8812 9.31975 20.1406 9.31975 20.3116 9.49067L24.3727 13.5509C24.9878 14.1659 25.9852 14.1659 26.6003 13.5509C27.2155 12.9359 27.2155 11.9387 26.6003 11.3237L21.2439 5.96843C20.5542 5.29657 19.4444 5.30201 18.7602 5.98611Z" fill="#4285EB"/>
        <path d="M18.7602 5.98611L5.98391 18.7598C5.29703 19.4466 5.29703 20.5558 5.98391 21.2425L18.7602 34.0162C19.447 34.703 20.5566 34.703 21.2434 34.0162L26.6003 28.6603C27.2155 28.0453 27.2155 27.0481 26.6003 26.4331C25.9852 25.8181 24.9878 25.8181 24.3727 26.4331L20.3116 30.4934C20.1406 30.6644 19.8812 30.6644 19.7102 30.4934L9.50744 20.2927C9.33647 20.1217 9.33647 19.8623 9.50744 19.6914L19.7102 9.49067C20.1359 9.12346 20.8305 8.37968 21.8505 8.20571C22.6084 8.07643 23.4372 8.36098 24.3366 9.05936C23.7353 8.45817 22.7044 7.42786 21.2439 5.96843C20.5542 5.29657 19.4444 5.30201 18.7602 5.98611Z" fill="#23BDFF"/>
        <path d="M27.8366 25.2452C28.4518 25.8603 29.4491 25.8603 30.0643 25.2452L34.0159 21.2945C34.7027 20.6078 34.7027 19.4986 34.0159 18.8119L30.0299 14.8409C29.4134 14.2266 28.4157 14.2275 27.8002 14.8428C27.1851 15.4579 27.1851 16.455 27.8002 17.07L30.4923 19.7617C30.6634 19.9325 30.6634 20.192 30.4923 20.363L27.8366 23.018C27.2215 23.633 27.2215 24.6302 27.8366 25.2452Z" fill="#F85D62"/>
        <path d="M20.0657 23.5139C21.9709 23.5139 23.5154 21.9698 23.5154 20.065C23.5154 18.1603 21.9709 16.6161 20.0657 16.6161C18.1606 16.6161 16.6162 18.1603 16.6162 20.065C16.6162 21.9698 18.1606 23.5139 20.0657 23.5139Z" fill="#F85D62"/>
    </symbol>
    <symbol id="Bash" viewBox="0 0 40 40">
        <path fill-rule="evenodd" clip-rule="evenodd" d="M20 4.375C20.67 4.37518 21.3278 4.55639 21.9033 4.89941L31.7686 10.7549C32.9461 11.4539 33.6719 12.7466 33.6719 14.1445V25.8564C33.6719 27.2541 32.946 28.546 31.7686 29.2451L21.9023 35.1006C21.3268 35.4432 20.6698 35.6246 20 35.625C19.3301 35.6246 18.6723 35.4432 18.0967 35.1006L8.23145 29.2451C7.0538 28.5461 6.32812 27.2541 6.32812 25.8564V14.1445C6.32812 12.7465 7.05306 11.454 8.23047 10.7549L18.0967 4.89941C18.6723 4.55637 19.3299 4.37512 20 4.375ZM20 5.06934C19.4515 5.06993 18.9128 5.21866 18.4414 5.49902L8.5752 11.3555C7.61093 11.928 7.01172 12.9969 7.01172 14.1445V25.8564C7.01172 27.0042 7.61125 28.0727 8.57617 28.6455L18.4414 34.501C18.9128 34.7813 19.4515 34.9301 20 34.9307C20.1746 34.9307 20.3474 34.9096 20.5186 34.8799C19.9973 34.7221 19.6576 34.1782 19.6582 33.3379V21.8369C19.6591 20.4339 20.5172 19.6705 21.6807 18.9902L31.0146 13.2246C31.8744 12.7226 32.6123 12.9131 32.9395 13.6113C32.7852 12.6741 32.2368 11.8381 31.4238 11.3555L21.5586 5.49902C21.0852 5.21827 20.546 5.06936 20 5.06934ZM23.9512 21.5781L23.4688 21.8857C23.3867 21.927 23.3221 22.0421 23.3232 22.1465L23.333 22.9961C22.6183 23.5674 22.166 24.4706 22.1748 25.3389C22.186 26.3933 22.854 26.5352 23.5703 26.5332C24.133 26.5375 24.3655 26.7152 24.3701 27.1426C24.3749 27.6137 24.0636 28.0889 23.5986 28.3242C23.2327 28.5095 22.8513 28.5562 22.5537 28.4561C22.5301 28.4472 22.5021 28.4497 22.4736 28.4639C22.4579 28.4718 22.442 28.4834 22.4268 28.498C22.3837 28.5361 22.3523 28.5964 22.3379 28.6562L22.1572 29.417C22.1367 29.5044 22.1589 29.5813 22.2109 29.6016C22.4871 29.7123 22.9193 29.6703 23.3457 29.4932L23.3545 30.3203C23.3557 30.4214 23.4212 30.4709 23.501 30.4307L23.999 30.1436C24.0785 30.1032 24.1444 29.9869 24.1436 29.8857L24.1279 29.0449C24.8639 28.4517 25.3452 27.4834 25.3359 26.582C25.3264 25.664 24.9319 25.2652 24.0205 25.25C23.3366 25.2383 23.1381 25.1214 23.1338 24.7354C23.1304 24.412 23.3063 23.9766 23.8076 23.7227C24.2857 23.4805 24.59 23.5463 24.7178 23.5752C24.7428 23.5798 24.7688 23.5758 24.791 23.5635C24.8092 23.5539 24.8264 23.541 24.8408 23.5264C24.8792 23.4907 24.9112 23.4335 24.9258 23.377L25.1123 22.623C25.137 22.5252 25.1104 22.4431 25.0498 22.4268C24.7699 22.3621 24.461 22.3996 24.1055 22.541L24.0967 21.6914C24.0956 21.5875 24.0305 21.5382 23.9512 21.5781ZM29.1816 26.9893L26.7256 28.46C26.6606 28.4978 26.613 28.5402 26.6123 28.6182V29.2617C26.6125 29.3399 26.6647 29.3721 26.7295 29.334L29.2246 27.8184C29.2895 27.7804 29.2993 27.7071 29.2998 27.6289V27.0625C29.2998 26.9844 29.2468 26.9513 29.1816 26.9893Z"/>
    </symbol>
</svg>
