<svg width="182" height="40" viewBox="0 0 182 40" fill="none" xmlns="http://www.w3.org/2000/svg">
<g clip-path="url(#clip0_2_1280)">
<rect y="29.0908" width="25.4545" height="10.9091" fill="#919AFF"/>
<rect x="14.5459" width="10.9091" height="25.4545" fill="#919AFF"/>
<rect x="29.0908" y="14.5454" width="10.9091" height="25.4545" fill="#919AFF"/>
<rect width="10.9091" height="10.9091" fill="#919AFF"/>
<path d="M56.7273 40L40 0H44.3923L58.5518 33.5953H57.1647L71.2664 0H75.6587L58.9091 40H56.7273Z" fill="white"/>
<path d="M90.993 40C88.4501 40 86.1191 39.4566 84 38.3697C81.9194 37.2441 80.2434 35.6914 78.972 33.7118C77.7005 31.6934 77.0648 29.345 77.0648 26.6667C77.0648 24.1824 77.662 21.9311 78.8564 19.9127C80.0508 17.8942 81.6497 16.2834 83.6532 15.0801C85.6568 13.8768 87.8915 13.2751 90.3573 13.2751C92.7461 13.2751 94.9423 13.8768 96.9458 15.0801C98.9493 16.2834 100.568 17.8748 101.8 19.8544C103.033 21.8341 103.65 24.0272 103.65 26.4338V28.064H84V24.2795H99.3731C98.9108 22.3387 97.832 20.7084 96.1367 19.3886C94.4799 18.0301 92.5535 17.3508 90.3573 17.3508C88.5464 17.3508 86.9475 17.7778 85.5604 18.6317C84.2119 19.4857 83.1524 20.6502 82.3818 22.1252C81.6112 23.5614 81.2259 25.1917 81.2259 27.016C81.2259 28.8016 81.669 30.3736 82.5552 31.7322C83.4413 33.0519 84.5779 34.0805 85.965 34.8181C87.352 35.5556 88.8162 35.9243 90.3573 35.9243C91.5517 35.9243 92.6498 35.7885 93.6516 35.5167C94.6918 35.245 95.6358 34.8375 96.4835 34.294C97.3696 33.7506 98.1595 33.0519 98.853 32.198L101.916 34.7598C101.068 35.8467 100.028 36.7977 98.7952 37.6128C97.6008 38.3891 96.3293 38.9908 94.9808 39.4178C93.6323 39.8059 92.303 40 90.993 40Z" fill="white"/>
<path d="M110.009 40V13.9738H114.055V18.3988C114.864 17.0015 115.962 15.837 117.349 14.9054C118.736 13.935 120.374 13.4498 122.262 13.4498C124.265 13.4498 125.961 13.8573 127.348 14.6725C128.735 15.4488 129.794 16.5939 130.526 18.1077C131.258 19.5827 131.624 21.4071 131.624 23.5808V40H127.579V23.5808C127.579 22.5716 127.425 21.6012 127.116 20.6696C126.847 19.738 126.346 18.9811 125.614 18.3988C124.92 17.8166 123.957 17.5255 122.724 17.5255C120.643 17.5255 118.967 18.0301 117.696 19.0393C116.425 20.0485 115.5 21.4265 114.922 23.1732C114.344 24.8811 114.055 26.7831 114.055 28.8792V40H110.009Z" fill="white"/>
<path d="M142.889 40V17.7584H136.531V13.9738H142.889V4.01747H146.934V13.9738H153.234V17.7584H146.934V40H142.889Z" fill="white"/>
<path d="M168.526 40C166.098 40 163.864 39.4178 161.822 38.2533C159.818 37.05 158.219 35.4391 157.025 33.4207C155.83 31.4022 155.233 29.1509 155.233 26.6667C155.233 24.1824 155.83 21.9311 157.025 19.9127C158.219 17.8942 159.818 16.2834 161.822 15.0801C163.825 13.8768 166.06 13.2751 168.526 13.2751C170.991 13.2751 173.226 13.8768 175.23 15.0801C177.233 16.2834 178.832 17.8942 180.027 19.9127C181.221 21.9311 181.818 24.1824 181.818 26.6667C181.818 29.1509 181.221 31.4022 180.027 33.4207C178.832 35.4391 177.214 37.05 175.172 38.2533C173.168 39.4178 170.953 40 168.526 40ZM168.526 35.9243C170.221 35.9243 171.762 35.5167 173.149 34.7016C174.575 33.8476 175.692 32.722 176.501 31.3246C177.349 29.9272 177.773 28.3746 177.773 26.6667C177.773 24.9199 177.349 23.3479 176.501 21.9505C175.692 20.5531 174.594 19.4469 173.207 18.6317C171.82 17.7778 170.259 17.3508 168.526 17.3508C166.83 17.3508 165.27 17.7778 163.844 18.6317C162.457 19.4469 161.34 20.5531 160.492 21.9505C159.683 23.3479 159.279 24.9199 159.279 26.6667C159.279 28.3746 159.683 29.9272 160.492 31.3246C161.34 32.722 162.457 33.8476 163.844 34.7016C165.27 35.5167 166.83 35.9243 168.526 35.9243Z" fill="white"/>
</g>
<defs>
<clipPath id="clip0_2_1280">
<rect width="181.818" height="40" fill="white"/>
</clipPath>
</defs>
</svg>
