<svg width="142" height="40" viewBox="0 0 142 40" fill="none" xmlns="http://www.w3.org/2000/svg">
<g clip-path="url(#clip0_2_1274)">
<path d="M16.7273 40L0 0H4.39232L18.5518 33.5953H17.1647L31.2664 0H35.6587L18.9091 40H16.7273Z" fill="white"/>
<path d="M50.993 40C48.4501 40 46.1191 39.4566 44 38.3697C41.9194 37.2441 40.2434 35.6914 38.972 33.7118C37.7005 31.6934 37.0648 29.345 37.0648 26.6667C37.0648 24.1824 37.662 21.9311 38.8564 19.9127C40.0508 17.8942 41.6497 16.2834 43.6532 15.0801C45.6568 13.8768 47.8915 13.2751 50.3573 13.2751C52.7461 13.2751 54.9423 13.8768 56.9458 15.0801C58.9493 16.2834 60.5675 17.8748 61.8005 19.8544C63.0334 21.8341 63.6499 24.0272 63.6499 26.4338V28.064H44V24.2795H59.3731C58.9108 22.3387 57.832 20.7084 56.1367 19.3886C54.4799 18.0301 52.5535 17.3508 50.3573 17.3508C48.5464 17.3508 46.9475 17.7778 45.5604 18.6317C44.2119 19.4857 43.1524 20.6502 42.3818 22.1252C41.6112 23.5614 41.2259 25.1917 41.2259 27.016C41.2259 28.8016 41.669 30.3736 42.5552 31.7322C43.4413 33.0519 44.5779 34.0805 45.965 34.8181C47.352 35.5556 48.8162 35.9243 50.3573 35.9243C51.5517 35.9243 52.6498 35.7885 53.6516 35.5167C54.6918 35.245 55.6358 34.8375 56.4835 34.294C57.3696 33.7506 58.1595 33.0519 58.853 32.198L61.9161 34.7598C61.0684 35.8467 60.0281 36.7977 58.7952 37.6128C57.6008 38.3891 56.3293 38.9908 54.9808 39.4178C53.6323 39.8059 52.303 40 50.993 40Z" fill="white"/>
<path d="M70.0094 40V13.9738H74.055V18.3988C74.8641 17.0015 75.9622 15.837 77.3493 14.9054C78.7363 13.935 80.3738 13.4498 82.2617 13.4498C84.2652 13.4498 85.9605 13.8573 87.3476 14.6725C88.7346 15.4488 89.7942 16.5939 90.5262 18.1077C91.2583 19.5827 91.6243 21.4071 91.6243 23.5808V40H87.5787V23.5808C87.5787 22.5716 87.4246 21.6012 87.1164 20.6696C86.8467 19.738 86.3458 18.9811 85.6138 18.3988C84.9202 17.8166 83.957 17.5255 82.7241 17.5255C80.6435 17.5255 78.9675 18.0301 77.696 19.0393C76.4246 20.0485 75.4999 21.4265 74.9219 23.1732C74.344 24.8811 74.055 26.7831 74.055 28.8792V40H70.0094Z" fill="white"/>
<path d="M102.889 40V17.7584H96.5314V13.9738H102.889V4.01747H106.934V13.9738H113.234V17.7584H106.934V40H102.889Z" fill="white"/>
<path d="M128.526 40C126.098 40 123.864 39.4178 121.822 38.2533C119.818 37.05 118.219 35.4391 117.025 33.4207C115.83 31.4022 115.233 29.1509 115.233 26.6667C115.233 24.1824 115.83 21.9311 117.025 19.9127C118.219 17.8942 119.818 16.2834 121.822 15.0801C123.825 13.8768 126.06 13.2751 128.526 13.2751C130.991 13.2751 133.226 13.8768 135.23 15.0801C137.233 16.2834 138.832 17.8942 140.027 19.9127C141.221 21.9311 141.818 24.1824 141.818 26.6667C141.818 29.1509 141.221 31.4022 140.027 33.4207C138.832 35.4391 137.214 37.05 135.172 38.2533C133.168 39.4178 130.953 40 128.526 40ZM128.526 35.9243C130.221 35.9243 131.762 35.5167 133.149 34.7016C134.575 33.8476 135.692 32.722 136.501 31.3246C137.349 29.9272 137.773 28.3746 137.773 26.6667C137.773 24.9199 137.349 23.3479 136.501 21.9505C135.692 20.5531 134.594 19.4469 133.207 18.6317C131.82 17.7778 130.259 17.3508 128.526 17.3508C126.83 17.3508 125.27 17.7778 123.844 18.6317C122.457 19.4469 121.34 20.5531 120.492 21.9505C119.683 23.3479 119.279 24.9199 119.279 26.6667C119.279 28.3746 119.683 29.9272 120.492 31.3246C121.34 32.722 122.457 33.8476 123.844 34.7016C125.27 35.5167 126.83 35.9243 128.526 35.9243Z" fill="white"/>
</g>
<defs>
<clipPath id="clip0_2_1274">
<rect width="141.818" height="40" fill="white"/>
</clipPath>
</defs>
</svg>
